<svg width="120" height="59" fill="none" xmlns="http://www.w3.org/2000/svg"><g clip-path="url(#clip0)"><path d="M29.064 58.065c16.05 0 29.063-12.999 29.063-29.033S45.115 0 29.063 0C13.014 0 0 12.998 0 29.032s13.012 29.033 29.064 29.033z" fill="#721B2B"/><path d="M12.89 28.79H6.854V13.485h6.035c2.402 0 4.353.704 5.852 2.111 1.515 1.408 2.272 3.259 2.272 5.554 0 2.295-.75 4.146-2.249 5.553-1.499 1.392-3.457 2.088-5.874 2.088zm0-2.868c1.468 0 2.63-.459 3.488-1.377.872-.918 1.308-2.05 1.308-3.396 0-1.408-.421-2.555-1.262-3.442-.842-.903-2.02-1.354-3.534-1.354h-2.777v9.569h2.777zm23.925 2.869h-3.718l-.94-2.594h-6.563l-.964 2.594h-3.718l5.92-15.307h4.085l5.898 15.307zm-5.553-5.462l-2.387-6.586-2.387 6.586h4.774zm20.667 5.462h-3.144l-7.298-9.983v9.983H38.23V13.484h3.35l7.09 9.616v-9.615h3.259v15.307z" fill="#FEFFFF"/><path d="M77.897 28.79H74.18l-.94-2.593h-6.564l-.964 2.594h-3.718l5.921-15.307H72l5.897 15.307zm-5.553-5.461l-2.386-6.586-2.387 6.586h4.773zM82.57 28.79h-3.26V13.484h7.16c1.606 0 2.86.474 3.763 1.423.918.933 1.377 2.104 1.377 3.511 0 1.392-.459 2.563-1.377 3.511-.918.949-2.172 1.423-3.763 1.423h-3.9v5.439zm3.465-8.308c.658 0 1.193-.183 1.606-.55.428-.383.643-.888.643-1.515 0-.627-.215-1.124-.643-1.492-.413-.382-.948-.573-1.606-.573H82.57v4.13h3.465zM96.89 28.79h-3.26V13.484h7.16c1.606 0 2.861.474 3.763 1.423.918.933 1.377 2.104 1.377 3.511 0 1.392-.459 2.563-1.377 3.511-.917.949-2.172 1.423-3.763 1.423h-3.9v5.439zm3.465-8.308c.658 0 1.193-.183 1.606-.55.429-.383.643-.888.643-1.515 0-.627-.214-1.124-.643-1.492-.413-.382-.948-.573-1.606-.573H96.89v4.13h3.465zm14.989 8.308h-3.259v-6.265l-5.897-9.042h3.717l3.81 6.15 3.763-6.15h3.718l-5.852 9.042v6.265z" fill="#721B2B"/><path d="M28.418 58.064c-.388-2.838.129-5.806 1.937-8.387 1.68-2.58 4.78-4.129 7.75-4.387 1.421-.258 3.1-.129 4.392.13 1.421.257 2.584.386 3.875.257 2.584-.129 5.167-1.032 7.88-1.806-2.196 1.806-4.65 3.355-7.621 3.87-1.421.259-3.1.259-4.392.13a19.45 19.45 0 0 0-3.875 0c-2.584.258-4.78 1.29-6.588 3.097-1.68 1.806-2.712 4.387-3.358 7.096z" fill="#A88036"/><path d="M28.418 56.774c-.646-3.226-.388-6.71 1.033-9.935 1.42-3.226 4.521-5.807 8.138-6.58a17.484 17.484 0 0 1 5.167-.388c1.679.13 3.1.258 4.65 0 3.1-.258 6.2-1.42 9.3-2.452-2.583 2.065-5.554 3.742-8.913 4.646-1.679.387-3.487.387-5.166.387-1.55 0-3.1 0-4.522.387-1.42.258-2.841.903-4.004 1.677-1.162.903-2.196 1.936-2.97 3.226-1.55 2.58-2.326 5.806-2.713 9.032z" fill="#A88036"/><path d="M28.418 50.323a17.05 17.05 0 0 1 2.454-9.549c.904-1.42 2.067-2.839 3.487-3.87 1.421-1.033 3.23-1.678 4.909-1.936 1.808-.258 3.488-.13 5.038 0 1.55.129 3.1.129 4.52-.13 3.1-.386 6.072-1.29 9.172-2.322-2.584 1.936-5.554 3.613-8.784 4.387-1.55.516-3.23.516-4.908.516-1.68 0-3.23-.129-4.65 0-2.842.387-5.426 1.936-7.234 4.387-1.808 2.452-3.1 5.42-4.004 8.517z" fill="#A88036"/></g><defs><clipPath id="clip0"><path fill="#fff" d="M0 0h120v58.065H0z"/></clipPath></defs></svg>