<svg width="184" height="38" fill="none" xmlns="http://www.w3.org/2000/svg"><path fill-rule="evenodd" clip-rule="evenodd" d="M122.842 15.622l5.961-11.684h.104l6.592 11.684h6.775L133.53.524h-5.725l-7.904 15.098h2.941zm-93.72-6.59l9.349-.105a5.046 5.046 0 0 1-1.944 3.78c-1.549 1.182-3.755 1.288-4.805 1.288-1.55 0-2.889-.212-4.254-.999-.867-.499-1.865-1.34-2.363-2.048l-.421-.603-3.046 1.68c.893.998 2.285 1.995 3.755 2.703 2.258 1.078 4.333 1.34 6.854 1.34 2.678 0 6.854-.368 9.873-2.547 2.101-1.523 3.073-3.597 3.073-5.435 0-1.838-.972-3.938-3.073-5.435C39.52.76 35.714.104 32.326.104c-2.206 0-4.229.21-6.277.945-1.706.578-3.045 1.366-4.41 2.52l3.045 1.656.735-.762c.604-.657 1.628-1.26 2.547-1.628 1.235-.525 2.522-.683 3.86-.683 2.706 0 4.255.84 5.121 1.654.578.526 1.34 1.524 1.523 3.047l-9.348-.132v2.31zm124.417-7.089c1.523 0 3.256.315 4.596 1.969 1.077 1.313 1.26 2.836 1.26 4.175 0 1.34-.183 2.836-1.26 4.174-1.34 1.655-3.072 1.97-4.596 1.97s-3.255-.315-4.595-1.97c-1.077-1.338-1.26-2.834-1.26-4.174 0-1.339.183-2.862 1.26-4.175 1.339-1.654 3.071-1.97 4.595-1.97zm0 14.127c2.837 0 6.801-.63 9.454-2.548 2.1-1.496 3.1-3.623 3.1-5.435 0-1.811-.999-3.938-3.1-5.435-2.652-1.917-6.616-2.547-9.454-2.547-2.809 0-6.8.63-9.479 2.547-2.1 1.497-3.073 3.624-3.073 5.435 0 1.812.973 3.939 3.073 5.435 2.678 1.917 6.67 2.548 9.479 2.548zM101.466 4.332a6.555 6.555 0 0 1 1.945-.289h.709v7.85h-.709a6.555 6.555 0 0 1-1.945-.288c-.524-.158-.998-.368-1.365-.682-.709-.552-1.287-1.471-1.287-2.968 0-1.47.578-2.388 1.287-2.94.367-.316.841-.525 1.365-.683zm10.976 9.479c3.388-.21 5.174-.998 6.119-1.575 1.787-1.077 2.601-2.6 2.601-4.28 0-2.205-1.446-3.518-2.601-4.253-1.602-1.024-3.861-1.445-6.119-1.577-.602-.051-1.208-.051-1.812-.051h-.655V0h-6.067v2.075h-.631c-.603 0-1.208 0-1.812.051-2.284.132-4.541.552-6.118 1.577-1.155.735-2.6 2.048-2.6 4.253 0 1.68.814 3.203 2.6 4.28.918.577 2.705 1.366 6.118 1.575.552.027 1.156.052 1.812.052h.631v2.207h6.067v-2.207h.655c.658 0 1.262-.025 1.812-.052zm0-9.479c.526.158.999.367 1.368.683.708.552 1.285 1.47 1.285 2.94 0 1.497-.577 2.416-1.285 2.968-.368.314-.841.524-1.368.682a6.715 6.715 0 0 1-1.97.288h-.682v-7.85h.682c.71 0 1.368.105 1.97.29zM79.383 1.943c1.498 0 3.255.315 4.595 1.969 1.077 1.313 1.26 2.836 1.26 4.175 0 1.34-.184 2.836-1.26 4.174-1.34 1.655-3.098 1.97-4.595 1.97-1.523 0-3.283-.315-4.622-1.97-1.077-1.338-1.233-2.834-1.233-4.174 0-1.339.157-2.862 1.233-4.175 1.34-1.654 3.099-1.97 4.622-1.97zm0 14.127c2.81 0 6.801-.63 9.453-2.548 2.075-1.496 3.046-3.623 3.046-5.435 0-1.811-.972-3.938-3.046-5.435C86.184.735 82.192.105 79.383.105c-2.836 0-6.828.63-9.48 2.547-2.1 1.497-3.072 3.624-3.072 5.435 0 1.812.972 3.939 3.072 5.435 2.652 1.917 6.644 2.548 9.48 2.548zm-22.899-5.988h1.13c2.915 0 4.937-.315 6.381-1.156 1.811-1.077 2.232-2.547 2.232-3.701 0-1.13-.42-2.6-2.232-3.624C62.551.787 60.607.524 57.352.524H46.978v15.098h6.067v-5.54h3.44zm0-7.247c.735.026 1.681.158 2.364.577.919.577 1.077 1.366 1.077 1.838 0 .473-.132 1.313-1.13 1.917-.682.447-1.522.578-2.31.63h-3.441V2.81h2.81c.184 0 .394 0 .63.025zM9.533 4.07l3.02 5.145h-6.04l2.862-5.25h.078l.08.105zm4.254 7.194l2.6 4.358h6.775L13.972.524H8.35L0 15.622h3.02l2.389-4.358h8.378zM164.883 2.81h6.513v12.812h6.066V2.81H184V.524h-19.117V2.81zm12.894 23.078h-.998l-3.992 3.861 1.339-3.86h-1.023l-1.786 5.25h1.024l3.966-3.885-1.314 3.886h1.024l1.76-5.252zm-6.198 0h-.997l-.709 2.05h-2.496l.71-2.05h-1.023l-1.788 5.252h1.025l.814-2.442h2.495l-.84 2.442h1.051l1.758-5.252zm-6.039 0h-.998l-3.991 3.861 1.313-3.86h-.999l-1.785 5.25h.997l3.993-3.885-1.314 3.886h.998l1.786-5.252zm-9.322 0l-.604 1.499c-.262.708-.368.944-.631 1.495-.342.737-.683 1.445-1.574 1.654l-.159.682c.525-.025.919-.236 1.182-.392 1.023-.657 1.365-1.788 2.127-3.626l.262-.628h1.26l-1.522 4.566h.997l1.786-5.252h-3.124v.002zm-22.373 2.837c.131-.027.315-.027.524-.027h.736l-.367 1.103c-.158.21-.315.341-.526.471-.13.08-.261.133-.366.158a1.36 1.36 0 0 1-.552.106c-.211 0-.473-.027-.631-.237-.132-.184-.132-.394-.053-.657.08-.208.211-.417.5-.63a1.63 1.63 0 0 1 .735-.287zm.552 2.415h.892l1.156-3.413c.184-.525.394-1.05.104-1.497-.235-.341-.813-.473-1.287-.473-.603 0-1.051.08-1.417.212-.762.289-1.103.79-1.13 1.233l.892.053a.955.955 0 0 1 .238-.421c.237-.288.631-.366 1.129-.366.211 0 .472.027.579.212.158.182.078.445 0 .682l-.211.68h-.762c-.263 0-.498 0-.735.027-1.024.13-1.89.551-2.258 1.63-.29.812 0 1.521 1.155 1.521.341 0 .709-.025 1.076-.21h.027a3.11 3.11 0 0 0 .735-.525h.026l-.209.655zm16.753-2.415c.157-.027.315-.027.525-.027h.762l-.395 1.103c-.159.21-.315.341-.525.471-.131.08-.263.133-.367.158-.184.079-.34.106-.525.106-.237 0-.498-.027-.631-.237-.157-.184-.157-.394-.078-.657.078-.208.211-.417.499-.63a1.65 1.65 0 0 1 .735-.287zm.55 2.415h.92l1.155-3.413c.157-.525.367-1.05.08-1.497-.238-.341-.815-.473-1.288-.473-.578 0-1.051.08-1.418.212-.762.289-1.077.79-1.13 1.233l.893.053a.954.954 0 0 1 .237-.421c.262-.288.63-.366 1.13-.366.209 0 .472.027.603.212.131.182.079.445 0 .682l-.238.68h-.761c-.261 0-.497 0-.734.027-1.023.13-1.892.551-2.258 1.63-.289.812 0 1.521 1.156 1.521.34 0 .708-.025 1.102-.21a3.01 3.01 0 0 0 .734-.525h.054l-.237.655zm-2.809-5.252h-1.024l-3.965 3.861 1.314-3.86h-1.025l-1.786 5.25h1.024l3.965-3.885-1.313 3.886h1.025l1.785-5.252zm-8.797 2.916c.183 0 .341.078.446.157.132.158.132.421.027.658-.106.287-.29.496-.446.603 0 0-.027 0-.027.026-.21.13-.499.18-.787.18h-1.235l.553-1.652h1.285c.079.001.133.001.184.028zm0-2.232h.525c.184 0 .42 0 .578.158.158.184.132.366.08.577-.08.21-.184.42-.422.576-.26.184-.498.184-.761.184h-1.234l.524-1.495h.71zm0 4.492c.341-.107.657-.29.893-.448.29-.236.578-.58.736-.996.105-.318.132-.607-.027-.867-.104-.186-.315-.342-.602-.396l.026-.025c.341-.08.63-.264.813-.448.183-.182.342-.471.446-.735.158-.471.079-.735-.104-.946-.262-.287-.683-.314-1.024-.314h-2.652l-1.811 5.252h2.598c.236-.001.473-.027.708-.077zm-17.461-4.519c.157-.052.314-.08.444-.08 1.024 0 .789.868.605 1.34l-.078.235h-2.155l.08-.234c.262-.79.709-1.128 1.104-1.26zm0 2.18h1.758c.787-1.893.683-2.97-1.076-2.97-.211 0-.447.028-.682.08-1.025.237-1.945 1.078-2.496 2.757-.76 2.234.131 2.626 1.34 2.626.445 0 .839-.053 1.156-.155.839-.29 1.312-.868 1.39-1.445l-.866-.134c-.053.157-.183.5-.524.736a1.48 1.48 0 0 1-.92.288c-.316 0-1.102-.08-.657-1.284l.158-.5h1.419zm-2.89-2.837h-.997l-3.992 3.861 1.312-3.86h-.997l-1.785 5.25h1.023l3.965-3.885-1.313 3.886h1.025l1.759-5.252zm-10.24 0l-1.786 5.252h1.023l.814-2.363h.973c.183 0 .419 0 .524.184.053.078.104.237.026.499l-.132.71c-.078.34-.132.708.289.917.211.08.525.132.71.132l.421-.762c-.08 0-.158 0-.238-.026-.211-.078-.183-.288-.157-.444l.053-.366c.026-.237.132-.58.026-.842-.053-.184-.263-.316-.474-.366v-.026c.264-.053.447-.186.604-.344a2.15 2.15 0 0 0 .368-.55l.184-.367c.078-.184.209-.473.473-.578.051-.026.132-.052.367-.08l.104-.681c-.394.052-.788.052-1.155.316-.315.236-.446.55-.578.814l-.158.288c-.131.265-.211.473-.472.632-.183.157-.394.157-.577.157h-.92l.71-2.101h-1.022v-.005zm-3.073 4.202c-.183.105-.421.182-.658.262a2.689 2.689 0 0 1-.761.104c-.341 0-.709-.026-.945-.34-.289-.367-.105-.945.133-1.602.183-.63.393-1.207.761-1.575.209-.21.524-.473 1.077-.473.367 0 .577.106.682.29.13.21.053.444-.105.788l.971-.078c.367-.58.316-1.157-.105-1.445-.263-.186-.656-.265-1.075-.265-.525 0-1.157.132-1.681.445-.972.578-1.445 1.631-1.655 2.287-.183.55-.445 1.574.079 2.207.341.444.893.523 1.497.523a3.89 3.89 0 0 0 1.182-.155c.236-.107.497-.213.762-.343l-.159-.63zm-4.57-6.486a.873.873 0 0 1-.261.368 1.129 1.129 0 0 1-.657.238c-.185 0-.447-.081-.499-.238-.08-.105-.054-.237 0-.368h-.735c-.185.394-.158.788.077 1 .237.235.658.26.92.26.317 0 .71-.025 1.129-.26.394-.212.658-.606.761-1h-.735zm.79 2.284h-1l-3.99 3.861 1.312-3.86h-.998l-1.785 5.25h1.023l3.966-3.885-1.312 3.886h1.023l1.761-5.252zm-6.2 0h-.997l-3.991 3.861 1.314-3.86h-1l-1.785 5.25h.998l3.966-3.885-1.314 3.886h1.025l1.784-5.252zm-7.561 4.202a5.468 5.468 0 0 1-.683.262c-.29.078-.499.104-.788.104-.315 0-.709-.026-.92-.34-.261-.367-.104-.945.133-1.602.21-.63.42-1.207.787-1.575a1.37 1.37 0 0 1 1.05-.473c.368 0 .579.106.71.29.105.21.027.444-.104.788l.945-.078c.367-.58.34-1.157-.079-1.445-.263-.186-.682-.265-1.103-.265-.525 0-1.156.132-1.68.445-.972.578-1.418 1.631-1.655 2.287-.184.55-.447 1.574.078 2.207.343.444.92.523 1.497.523.394 0 .762-.025 1.182-.155.21-.107.5-.213.735-.343l-.105-.63zm-5.174 0a7.526 7.526 0 0 1-.682.262c-.29.078-.5.104-.788.104-.315 0-.709-.026-.919-.34-.29-.367-.105-.945.132-1.602.183-.63.393-1.207.787-1.575.184-.21.5-.473 1.05-.473.342 0 .578.106.683.29.105.21.053.444-.105.788l.972-.078c.367-.58.315-1.157-.078-1.445-.264-.186-.684-.265-1.103-.265-.526 0-1.156.132-1.681.445-.972.578-1.419 1.631-1.655 2.287-.184.55-.446 1.574.08 2.207.34.444.918.523 1.496.523.394 0 .761-.025 1.182-.155.21-.107.499-.213.735-.343l-.106-.63zm-6.8-3.467c.183-.078.42-.157.709-.157.42 0 .63.184.71.341.209.394.025.974-.054 1.234l-.34.92c-.08.264-.29.84-.736 1.209-.078.08-.157.13-.288.21a1.659 1.659 0 0 1-.683.157c-.447 0-.656-.184-.735-.366-.184-.368 0-.944.079-1.209l.314-.92c.106-.26.316-.84.762-1.234.077-.05.156-.13.262-.185zm.945-.866c-.341 0-.657.052-.945.132a3.239 3.239 0 0 0-.972.553c-.735.576-1.102 1.392-1.313 2.073-.237.632-.447 1.445-.105 2.05.236.393.683.655 1.47.655.342 0 .657-.025.92-.132.394-.105.709-.288.997-.524.735-.604 1.103-1.417 1.34-2.05.21-.68.393-1.496.052-2.072-.21-.397-.657-.685-1.444-.685zm-5.148-1.339h.657c.342 0 .735.107.892.317.106.104.29.366.106.892-.184.553-.526.867-.683.971-.341.262-.683.368-.972.368-.077.027-.157.027-.235.027H70.98l.866-2.575h.866zm0 3.416a3.273 3.273 0 0 0 1.813-.684c.498-.342.919-.92 1.129-1.522.13-.421.235-1.102-.236-1.577-.473-.445-1.156-.498-1.787-.498h-2.599l-2.574 7.588h1.13l1.102-3.281h1.629c.105-.001.236-.001.393-.026zM184 25.888h-1.024l-3.965 3.861 1.313-3.86h-1.025l-1.785 5.25h1.024l3.965-3.885-1.312 3.886h1.024L184 25.888zM10.057 33.686l-2.18-.945 9.034-1.101c.157.261.316.498.5.735l-7.354 1.31zm24.237 0l2.18-.997-8.981-1.076c-.079.29-.316.525-.473.762l7.274 1.31zm-1.312.159l-2.731.919-3.886-1.18-.342-.105c.13-.107.236-.212.342-.341.157-.133.288-.317.446-.448l6.171 1.155zm7.221-2.546l-2.494 1.155L27.73 31.3c.079-.235.159-.472.237-.71l12.236.71zm.893-.342l3.255-2.074H26.706c0 .737-.105 1.367-.341 1.917-.684 1.759-2.39 2.6-4.097 2.571-1.68-.052-3.387-.917-4.15-2.52a4.626 4.626 0 0 1-.419-1.97H0l3.23 2.075 13.524-.708c.262.97.734 1.811 1.365 2.44 1.077 1.13 2.626 1.76 4.149 1.76 1.497.027 3.02-.523 4.097-1.733.578-.63 1.023-1.445 1.286-2.416l13.445.658zm-14.731 5.354l.34.633-.34.159-.92.419-1.05-2.075a7.07 7.07 0 0 1-2.127.394 6.72 6.72 0 0 1-2.31-.316l-.894 1.997c-.29.025-.683 0-.945-.182a.692.692 0 0 1-.314-.396l.314-.525.762-1.368c-.237-.155-.447-.26-.657-.471l.63-.76c1.077.657 2.259 1.023 3.414 1.023 1.155.027 2.31-.343 3.387-1.103l.71.21.29.106c-.105.078-.185.158-.29.237-.21.208-.393.419-.734.603l.734 1.415zm0-10.737c.682.814 1.18 1.813 1.444 2.967H26.68a6.196 6.196 0 0 0-.314-.997c-.762-1.995-2.312-3.414-4.097-4.598-.236-.13-.446-.287-.683-.419.237.08.447.16.683.239 1.627.654 3.071 1.548 4.096 2.808zm-3.047 7.403c.29-.052.735-.21 1.077-.471l-1.786-3.545 1.865-.894-1.576-1.365-.63.29-2.705 1.232.788 1.787 1.287-.576 1.68 3.543zm-4.884.5c-.105-.079-.21-.183-.315-.263a3.286 3.286 0 0 1-.525-.55l-6.167 1.164 2.625.881 4.382-1.231zm-1.68-2.178a7.52 7.52 0 0 1-.263-.71l-12.342.71 2.494 1.208 10.111-1.208z" fill="#00529C"/></svg>