<svg width="184" height="31" fill="none" xmlns="http://www.w3.org/2000/svg"><path d="M72.172 2.803A2.797 2.797 0 0 1 74.963 0a2.803 2.803 0 0 1 0 5.606 2.798 2.798 0 0 1-2.791-2.803z" fill="#273B7D"/><path d="M116.296 21.452c0-1.55 1.25-2.806 2.79-2.806a2.804 2.804 0 0 1 0 5.609 2.798 2.798 0 0 1-2.79-2.803z" fill="#499FDD"/><path d="M26.275 20.24c-2.408 0-4.082-1.912-4.082-4.646 0-2.732 1.674-4.644 4.082-4.644 2.423 0 4.115 1.912 4.115 4.644 0 2.777-1.657 4.646-4.115 4.646zm0-13.373c-5.095 0-8.793 3.672-8.793 8.727 0 5.056 3.698 8.727 8.793 8.727 5.115 0 8.828-3.67 8.828-8.727 0-5.055-3.713-8.727-8.828-8.727zm40.481 9.163a4.159 4.159 0 0 0-.667-.938l-.154-.164.162-.155c.234-.246.473-.539.704-.878l4.496-6.684h-5.459L62.46 12.44c-.191.28-.578.422-1.156.422h-.77V2.976C60.535 1 59.303.73 57.973.73h-2.278l.003 23.334h4.837v-7h.454c.55 0 .926.064 1.099.364l2.668 5.036c.745 1.366 1.488 1.6 2.885 1.6h3.707l-2.76-4.567-1.831-3.466zm23.481-9.2c-2.46 0-4.03 1.093-4.91 2.017l-.293.297-.104-.404c-.258-.99-1.13-1.535-2.44-1.535h-2.168l.013 16.852h4.804V16.29c0-.76.1-1.418.3-2.02.535-1.82 2.026-2.95 3.89-2.95 1.5 0 2.086.79 2.086 2.836v7.34c0 1.745.807 2.561 2.554 2.561h2.286l-.007-10.718c0-4.258-2.077-6.51-6.01-6.51m-15.211.383H72.75l.016 13.03h-.002v3.82h2.43c.031 0 .056.003.086.003l1.132-.004h1.127v-.006h.008l.01-14.284c0-1.724-.824-2.559-2.528-2.559M45.145 20.24c-2.409 0-4.086-1.912-4.086-4.646 0-2.732 1.678-4.644 4.086-4.644 2.417 0 4.114 1.912 4.114 4.644 0 2.777-1.656 4.646-4.114 4.646zm0-13.373c-5.1 0-8.8 3.672-8.8 8.727 0 5.056 3.7 8.727 8.8 8.727 5.11 0 8.828-3.67 8.828-8.727 0-5.055-3.719-8.727-8.828-8.727z" fill="#273B7D"/><path d="M148.118 20.24c-2.407 0-4.085-1.912-4.085-4.645 0-2.733 1.678-4.644 4.085-4.644 2.418 0 4.116 1.911 4.116 4.644 0 2.776-1.657 4.646-4.116 4.646zm0-13.373c-5.099 0-8.798 3.672-8.798 8.728 0 5.055 3.699 8.726 8.798 8.726 5.11 0 8.829-3.67 8.829-8.726 0-5.056-3.719-8.728-8.829-8.728z" fill="#499FDD"/><path d="M106.377 19.499c-2.626 0-3.561-2.292-3.561-4.439 0-.946.239-4.03 3.309-4.03 1.525 0 3.558.438 3.558 4.189 0 3.538-1.799 4.28-3.306 4.28zm5.8-12.332c-.911 0-1.613.364-1.964 1.028l-.133.257-.223-.193c-.775-.671-2.166-1.467-4.423-1.467-4.492 0-7.517 3.374-7.517 8.394 0 5.015 3.129 8.52 7.607 8.52 1.529 0 2.738-.357 3.696-1.083l.371-.278v.468c0 2.251-1.456 3.493-4.095 3.493-1.282 0-2.45-.312-3.23-.595-1.019-.308-1.617-.053-2.03.969l-.381.943-.54 1.378.334.178c1.689.897 3.888 1.431 5.875 1.431 4.091 0 8.868-2.094 8.868-7.987l.018-15.456h-2.232M8.384 20.047l-3.91-.004v-4.675c0-1 .387-1.519 1.243-1.638h2.667c1.903 0 3.133 1.2 3.135 3.142-.002 1.993-1.2 3.174-3.135 3.175zM4.474 7.435v-1.23c0-1.077.455-1.59 1.455-1.655H7.93c1.716 0 2.744 1.027 2.744 2.745 0 1.31-.703 2.839-2.68 2.839h-3.52V7.435zm8.904 4.666l-.707-.397.618-.528c.717-.617 1.92-2.004 1.92-4.401C15.21 3.108 12.366.74 7.962.74H2.365A2.452 2.452 0 0 0 0 3.161v20.817h2.306l.01.001 5.745-.001c4.894 0 8.054-2.665 8.054-6.79 0-2.223-1.021-4.122-2.738-5.088" fill="#273B7D"/><path d="M178.407 6.885c-1.993 0-3.92.933-5.157 2.498l-.349.441-.273-.493c-.889-1.623-2.421-2.446-4.55-2.446-2.233 0-3.731 1.245-4.427 1.986l-.455.493-.175-.648c-.254-.934-1.085-1.448-2.344-1.448h-2.019l-.02 16.787h4.588v-7.41c0-.65.081-1.292.243-1.963.439-1.79 1.642-3.717 3.665-3.524 1.248.12 1.857 1.083 1.857 2.946v9.951h4.62v-7.41c0-.811.076-1.419.259-2.028.372-1.71 1.628-3.462 3.58-3.462 1.413 0 1.935.8 1.935 2.949V21.6c0 1.696.757 2.454 2.452 2.454h2.159L184 13.338c0-4.28-1.885-6.453-5.594-6.453m-41.742 11.342c-.014.016-1.988 2.098-4.587 2.098-2.368 0-4.761-1.453-4.761-4.697 0-2.8 1.855-4.757 4.511-4.757.862 0 1.843.309 1.996.828l.023.088c.353 1.178 1.424 1.241 1.634 1.241l2.514.003v-2.197c0-2.898-3.687-3.95-6.167-3.95-5.305 0-9.154 3.694-9.154 8.78 0 5.083 3.807 8.771 9.057 8.771 4.554 0 7.031-2.993 7.054-3.023l.132-.162-1.99-3.302-.262.279" fill="#499FDD"/></svg>