<svg width="180" height="29" fill="none" xmlns="http://www.w3.org/2000/svg"><path d="M45.635 2.535v1.044h8.948c.596 0 1.49 0 2.087.596.597.597.597 1.491.597 2.088v8.947c0 .596 0 1.49-.597 2.087-.596.597-1.491.597-2.087.597h-4.325c-.746 0-1.716 0-2.088-.82-.373-.82.149-1.566.596-2.163l5.817-7.753h-8.948l-3.58 4.771c-.6.8-1.118 1.491-1.118 2.386s.483 1.539 1.118 2.386l.895 1.193c.895 1.193 1.79 2.386 2.983 2.982 1.193.597 2.61.597 4.548.597h3.878c2.237 0 5.592 0 7.83-2.237 2.236-2.237 2.236-5.517 2.236-6.71v-3.58c0-1.192 0-4.473-2.237-6.71C59.951 0 56.596.004 54.358.003L48.17 0c-.597 0-1.343 0-1.939.597-.596.596-.596 1.342-.596 1.938z" fill="#C4151C"/><path d="M34.897 7.157h8.948L33.107 21.473H24.16L34.897 7.157zM0 9.692c0-.596 0-1.342.596-1.938.597-.597 1.343-.597 1.94-.597h14.987c1.939 0 3.356 0 4.549.597 1.193.596 2.087 1.789 2.982 2.982l.895 1.193c.635.847 1.119 1.491 1.119 2.386 0 .894-.52 1.586-1.119 2.386l-3.58 4.771h-8.947l5.816-7.754c.447-.596.97-1.342.597-2.162-.373-.82-1.343-.82-2.088-.82h-7.01V28.63H3.58V10.736H0V9.692z" fill="#C4151C"/><path d="M72.927 18.896c-.537.73-1.085 1.45-1.621 2.169v.408h1.514c.74-.988 1.127-1.503 1.127-2.094h1.482v2.094h1.417v-2.094h1.482c0 .59.387 1.106 1.127 2.093h1.514v-.408l-1.632-2.168c1.375-1.031 1.375-1.031 1.375-2.384v-.45h-1.547v.45c0 1.643 0 1.643-1.61 1.643h-.709V16.06H75.43v2.094h-.709c-1.61 0-1.61 0-1.61-1.643v-.45h-1.547v.45c0 1.353 0 1.353 1.364 2.384z" fill="#231F20"/><path fill-rule="evenodd" clip-rule="evenodd" d="M83.654 18.284c0-1.192 0-1.192 1.32-1.192 1.322 0 1.322 0 1.322 1.192h-2.642zm0 .966h1.32c1.386-.01 1.794.011 2.256-.096l.547-.13V18.5c0-.891 0-2.566-2.544-2.566h-.516c-2.545 0-2.545 1.675-2.545 2.576v.516c0 .966.022 2.577 2.824 2.577.419 0 1.364 0 2.395-.258v-1.16h-.29l-1.03.258h-1.096c-1.32 0-1.32 0-1.32-1.192z" fill="#231F20"/><path d="M90.171 16.062c0 .816-.064 3.274-1.353 4.992v.419h1.579c.934-1.246.934-2.867.934-4.22h2.223v4.22h1.417V16.06h-4.8" fill="#231F20"/><path fill-rule="evenodd" clip-rule="evenodd" d="M98.235 18.284c0-1.192 0-1.192 1.321-1.192s1.321 0 1.321 1.192h-2.642zm0 .966h1.321c1.385-.01 1.793.011 2.255-.096l.547-.13V18.5c0-.891 0-2.566-2.544-2.566h-.516c-2.545 0-2.545 1.675-2.545 2.576v.516c0 .966.022 2.577 2.824 2.577.419 0 1.364 0 2.395-.258v-1.16h-.29l-1.031.258h-1.095c-1.321 0-1.321 0-1.321-1.192z" fill="#231F20"/><path d="M107.566 18.853v-.161c1.095-.28 1.095-.956 1.095-1.213 0-.516 0-1.547-2.609-1.547-.387 0-1.288 0-2.319.258v1.16h.29l1.03-.258h1.192c.827 0 .87 0 .87.601 0 .59 0 .59-.87.59h-1.192v.967h1.192c.827 0 .87 0 .87.59 0 .602 0 .602-.87.602h-1.192l-1.03-.258h-.29v1.16a9.405 9.405 0 0 0 2.319.257c2.599 0 2.609-1.03 2.609-1.546 0-.257 0-.933-1.095-1.202zm6.99-2.791v2.093h-2.835v-2.093h-1.417v5.41h1.417V19.38h2.835v2.094h1.417v-5.411h-1.417z" fill="#231F20"/><path fill-rule="evenodd" clip-rule="evenodd" d="M120.451 18.767c1.127 0 1.127 0 1.127.838 0 .837 0 .837-1.127.837h-1.128v-1.675h1.128zm5.057-2.705h-1.417v5.41h1.417v-5.41zm-4.864 5.41c1.707 0 2.416-.375 2.416-1.835 0-.806 0-1.965-2.223-1.965-.322 0-.87.032-1.514.193v-1.803h-1.417v5.41h2.738zm8.064-3.188c0-1.192 0-1.192 1.321-1.192 1.32 0 1.32 0 1.32 1.192h-2.641zm0 .966h1.321c1.385-.01 1.793.011 2.255-.096l.547-.13V18.5c0-.891 0-2.566-2.545-2.566h-.515c-2.545 0-2.545 1.675-2.545 2.576v.516c0 .966.022 2.577 2.824 2.577.419 0 1.364 0 2.395-.258v-1.16h-.29l-1.031.258h-1.095c-1.321 0-1.321 0-1.321-1.192zm10.028-.676c0-1.45 0-1.417 1.922-1.417.258 0 .613.032 1.042.128v2.32l-1.374.343c-1.59 0-1.59 0-1.59-1.374zm-.837 3.736v1.224a8.814 8.814 0 0 0 2.19.258c2.921 0 3.018-1.267 3.028-2.706v-5.024h-.462l-.687.515c-.472-.612-1.621-.634-1.986-.634-2.728 0-2.728 1.718-2.728 2.502v.258c0 .902 0 2.383 2.32 2.383.698 0 1.525-.193 2.126-.644v.45c0 1.665-.032 1.676-1.74 1.676h-.74l-1.031-.258h-.29zm9.524-6.377c-2.738 0-2.738 1.61-2.738 2.576v.516c0 .966 0 2.577 2.738 2.577h.516c2.738 0 2.738-1.61 2.738-2.577v-.516c0-.966 0-2.576-2.738-2.576h-.516zm.258 1.192c1.514 0 1.514 0 1.514 1.642 0 1.643 0 1.643-1.514 1.643s-1.514 0-1.514-1.643c0-1.642 0-1.642 1.514-1.642zm8.944 1.642c0 1.61 0 1.61-1.578 1.61-.387 0-.881 0-1.385-.128v-2.706l1.374-.343c1.589 0 1.589.021 1.589 1.567zm-4.381-2.705v7.601h1.418v-2.351c.644.16 1.159.29 1.932.29 2.513 0 2.513-1.836 2.513-2.577v-.516c0-.901 0-2.576-2.352-2.576-1.202 0-1.9.526-2.287.816l-.515-.687h-.709zm10.126-.129c-2.739 0-2.739 1.61-2.739 2.576v.516c0 .966 0 2.577 2.739 2.577h.515c2.738 0 2.738-1.61 2.738-2.577v-.516c0-.966 0-2.576-2.738-2.576h-.515zm.257 1.192c1.514 0 1.514 0 1.514 1.642 0 1.643 0 1.643-1.514 1.643s-1.514 0-1.514-1.643c0-1.642 0-1.642 1.514-1.642z" fill="#231F20"/><path d="M169.714 15.933c-.516 0-1.192 0-2.223.257v1.16h.29l1.031-.258h1.32c.709 0 .709 0 .709.408 0 .28 0 .365-.547.462l-1.289.322c-.741.183-1.772.462-1.772 1.578 0 .741 0 1.74 2.609 1.74.516 0 1.193 0 2.223-.258v-1.16h-.29c-.429.118-.837.215-.998.258h-1.353c-.709 0-.709 0-.709-.408 0-.247 0-.3.301-.386l.719-.194.816-.204c.741-.182 1.772-.45 1.772-1.578 0-.74 0-1.74-2.609-1.74zm9.234 5.69L180 20.84c-.386-.515-.386-.515-.386-1.428v-3.35h-1.418v3.93l-1.375.343c-1.46 0-1.46 0-1.46-1.492v-2.78h-1.417v2.995c0 1.063 0 2.544 2.158 2.544 1.128 0 1.826-.526 2.212-.815l.634.837z" fill="#231F20"/><path fill-rule="evenodd" clip-rule="evenodd" d="M71.584 3.135v7.601h1.546V8.643h1.224c2.094 0 3.736 0 3.736-2.749 0-2.759-1.642-2.759-3.736-2.759h-2.77zM73.13 7.29V4.488h1.868c1.385 0 1.45 0 1.45 1.406 0 1.364 0 1.396-1.45 1.396H73.13zm8.88-2.094c-2.739 0-2.739 1.61-2.739 2.577v.516c0 .966 0 2.576 2.739 2.576h.515c2.738 0 2.738-1.61 2.738-2.576v-.516c0-.966 0-2.577-2.738-2.577h-.515zm.257 1.192c1.514 0 1.514 0 1.514 1.643 0 1.642 0 1.642-1.514 1.642s-1.514 0-1.514-1.642c0-1.643 0-1.643 1.514-1.643z" fill="#231F20"/><path d="M89.483 10.865c.386 0 1.385 0 2.416-.257v-1.16h-.29l-1.042.258h-.612c-1.793 0-1.793 0-1.793-1.675s0-1.675 1.32-1.675c1.117 0 1.117 0 1.386 1.063l1.288-.322c0-.515 0-1.9-2.416-1.9h-.515c-2.545 0-2.545 1.61-2.545 2.576v.516c0 .966 0 2.576 2.803 2.576zm6.807 0c.387 0 1.386 0 2.416-.257v-1.16h-.29l-1.041.258h-.612c-1.794 0-1.794 0-1.794-1.675s0-1.675 1.321-1.675c1.117 0 1.117 0 1.386 1.063l1.288-.322c0-.515 0-1.9-2.416-1.9h-.515c-2.545 0-2.545 1.61-2.545 2.576v.516c0 .966 0 2.576 2.802 2.576zm9.127.022l1.052-.784c-.386-.516-.386-.516-.386-1.428v-3.35h-1.418v3.93l-1.374.343c-1.461 0-1.461 0-1.461-1.492v-2.78h-1.417V8.32c0 1.062 0 2.544 2.158 2.544 1.128 0 1.826-.526 2.212-.816l.634.838z" fill="#231F20"/><path fill-rule="evenodd" clip-rule="evenodd" d="M110.399 3.393c-.698 0-.698 0-1.041-.387l-.623.483c.676.87 1.02.934 2.008.934h.236c.977 0 1.331-.064 1.997-.934l-.623-.483c-.332.387-.332.387-1.041.387h-.913zm2.62 7.494l1.052-.784c-.386-.516-.386-.516-.386-1.428v-3.35h-1.418v3.93l-1.374.343c-1.428 0-1.461 0-1.461-1.492V5.325h-1.417V8.32c0 1.063 0 2.545 2.158 2.545 1.128 0 1.826-.526 2.212-.816l.634.838z" fill="#231F20"/><path d="M118.302 10.865c.387 0 1.385 0 2.416-.257v-1.16h-.29l-1.042.258h-.612c-1.793 0-1.793 0-1.793-1.675s0-1.675 1.321-1.675c1.116 0 1.116 0 1.385 1.063l1.288-.322c0-.515 0-1.9-2.416-1.9h-.515c-2.545 0-2.545 1.61-2.545 2.576v.516c0 .966 0 2.576 2.803 2.576zm4.262-5.54v5.411h1.418V8.643h1.739c0 .59.387 1.106 1.128 2.093h1.514v-.408l-1.632-2.168c1.374-1.03 1.374-1.03 1.374-2.384v-.45h-1.546v.45c0 1.643 0 1.643-1.611 1.643h-.966V5.325h-1.418zm12.23 5.562l1.053-.784c-.387-.516-.387-.516-.387-1.428v-3.35h-1.417v3.93l-1.375.343c-1.46 0-1.46 0-1.46-1.492v-2.78h-1.417V8.32c0 1.062 0 2.544 2.158 2.544 1.127 0 1.825-.526 2.212-.816l.633.838z" fill="#231F20"/><path fill-rule="evenodd" clip-rule="evenodd" d="M138.649 7.548c0-1.192 0-1.192 1.321-1.192s1.321 0 1.321 1.192h-2.642zm0 .966h1.321c1.385-.01 1.793.01 2.255-.097l.547-.128v-.526c0-.892 0-2.566-2.544-2.566h-.516c-2.545 0-2.545 1.674-2.545 2.576v.516c0 .966.022 2.576 2.824 2.576.419 0 1.364 0 2.395-.257v-1.16h-.29l-1.031.258h-1.095c-1.321 0-1.321 0-1.321-1.192z" fill="#231F20"/></svg>