<svg width="183" height="59" fill="none" xmlns="http://www.w3.org/2000/svg"><path d="M92.77 14.04h4.918v4.412H92.77V14.04zm0 6.978h4.918v18.55H92.77v-18.55zm12.404 2.965h.108c1.121-2.098 2.387-3.183 4.556-3.183.542 0 .868.037 1.157.145v4.303h-.108c-3.218-.325-5.533 1.374-5.533 5.28v9.039h-4.917v-18.55h4.737v2.966zm15.403-9.943h4.918v4.412h-4.918V14.04zm0 6.978h4.918v18.55h-4.918v-18.55zm12.475 2.531h.108c1.266-1.99 2.965-3.038 5.496-3.038 3.834 0 6.401 2.893 6.401 6.943v12.113h-4.918v-11.39c0-1.989-1.157-3.4-3.218-3.4-2.17 0-3.761 1.736-3.761 4.268v10.522h-4.917v-18.55h4.809v2.532zm14.029 6.725c0-5.496 3.724-9.763 9.148-9.763 5.967 0 9.149 4.556 9.149 11.173h-13.451c.361 2.856 1.952 4.628 4.736 4.628 1.917 0 3.038-.867 3.58-2.278h4.846c-.687 3.29-3.616 6.075-8.389 6.075-6.148 0-9.619-4.303-9.619-9.835zm4.918-1.989h8.244c-.145-2.35-1.699-3.977-3.941-3.977-2.604 0-3.869 1.555-4.303 3.977zm14.511 5.279h4.557c.325 2.134 1.844 3.074 4.05 3.074 2.17 0 3.399-.832 3.399-2.133 0-1.772-2.35-1.953-4.881-2.46-3.328-.65-6.582-1.554-6.582-5.604 0-4.013 3.327-5.93 7.558-5.93 4.881 0 7.593 2.423 7.955 6.147h-4.448c-.217-1.989-1.483-2.712-3.58-2.712-1.916 0-3.182.723-3.182 2.061 0 1.591 2.459 1.736 5.099 2.278 3.11.651 6.545 1.52 6.545 5.858 0 3.724-3.182 5.966-7.811 5.966-5.388 0-8.389-2.603-8.679-6.545zM81.167 14.04h-5.724L65.096 39.568h5.858l1.916-5.243h10.56l1.951 5.243h5.895L81.167 14.04zM74.28 30.02l3.797-10.847 3.905 10.848H74.28zm43.549-15.98h-4.918v25.527h4.918V14.04z" fill="#747679"/><path d="M58.712 29.361c0 16.218-13.134 29.349-29.347 29.349C13.15 58.71 0 45.579 0 29.361 0 13.144 13.15 0 29.365 0c16.213 0 29.347 13.144 29.347 29.361z" fill="#BED600"/><path d="M27.226 14.04c-4.624 0-7.624.255-9.795 1.06-3.65 1.422-6.17 4.401-6.17 8.316 0 3.261 1.519 5.623 5.913 8.339 4.689 2.842 5.624 3.781 5.624 5.494 0 1.874-1.836 4.008-6.562 4.008-1.65 0-4.134-.228-5.72-.617l-.758-.19c-.423 1.132-1.382 3.812-1.674 4.784l.75.22c1.427.456 4.816.811 7.244.811 8.077 0 12.896-4.879 12.896-9.989 0-3.14-1.425-5.525-6.243-8.532-2.417-1.486-3.649-2.45-4.397-3.196-.606-.78-.673-1.359-.673-1.971 0-.585.13-1.259.516-1.752.417-.61 1.181-1 2.216-1.32 1.064-.353 3.035-.362 6.105-.362h2.858l2.041-5.104h-4.171zm21.601 0H34.464l-2.042 5.102h4.761c3.204 0 3.82-.069 4.625-.069-1.162 2.657-8.161 20.493-8.161 20.493h5.924s8.861-22.203 9.8-24.53c.26-.52.131-.997-.544-.997z" fill="#fff"/></svg>