<svg width="183" height="45" fill="none" xmlns="http://www.w3.org/2000/svg"><path d="M132.357 1.987C132.74.828 131.878 0 130.965 0L64.122.156c-2.007-.001-4.816 1.037-6.239 3.492L40.81 35.049c-1.092 2.012-3.741 3.474-6.241 3.474l-5.192-.006c-1.565.006-2.878-1.7-1.917-3.468L44.574 3.543c.745-1.368-.136-3.361-1.961-3.377-.783-.006-13.188 0-15.056 0-2.182 0-4.474 1.056-5.948 3.632C20.493 5.754.436 39.938.436 39.938c-1.268 2.102.438 4.4 2.441 4.414H43.29c2.762-.001 5.122-1.406 6.309-3.426l17.016-31.41c1.47-2.704 3.063-3.538 6.269-3.538l4.418.005c1.623 0 2.948 1.672 1.93 3.535l-16.59 30.484c-1.038 1.908.359 4.325 2.499 4.337l14.113-.012c2.581.006 5.32-1.522 6.423-3.55l16.925-31.252c1.759-3.24 3.077-3.547 6.217-3.547l19.976-.056c1.343.046 1.823-.897 2.102-1.296l1.46-2.639zm24.848 42.372h-12.139s12.758-25.974 14.307-29.064c1.171-2.32 2.605-2.459 3.945-2.459h7.503s-3.897 7.798-4.07 8.083l.351.01s5.274-8.362 12.362-8.58c2.809-.094 6.027 3.39.57 7.967-3.814-.764-11.206.886-15.034 7.982-1.098 2.033-7.795 16.06-7.795 16.06zm-9.023-43.256c.296-.48.945-1.08 2.105-1.08 1.161 0 7.594.026 8.305.02.753-.01 1.904.815 1.251 2.158-.401.828-2.566 5.28-2.832 5.729-.263.45-.897 1.082-1.791 1.082h-8.421c-1.444 0-1.838-1.427-1.494-2.11.635-1.265 2.877-5.799 2.877-5.799zm-30.401 28.525c-1.124.023-2.515.257-3.652.552a14.411 14.411 0 0 0-3.075 1.17 7.442 7.442 0 0 0-1.961 1.48 6.258 6.258 0 0 0-1.203 1.84c-.335.8-.341 1.445-.006 1.947.33.499 1.105.68 1.834.68 1.411 0 2.915-.68 4.306-2.02 1.395-1.35 3.756-5.65 3.756-5.65h.001zm-6.674-16.095c.916-.657 2.673-.814 2.81-.814l10.961.008c1.868.002 3.449.165 4.725.482 2.607.648 4.022 2.039 4.335 4.603.161 1.341-.133 2.928-.897 4.745-.183.444-.414 1.21-.817 1.861-.398.656-8.25 15.595-10.715 19.92h-11.406s2.613-4.81 2.783-5.098l-.348-.014s-5.207 5.548-11.906 5.604c-1.399.01-2.52-.206-3.374-.615-.838-.408-1.468-1.052-1.877-1.934-.39-.796-.556-1.75-.51-2.861.045-1.106.332-2.305.87-3.583a15.414 15.414 0 0 1 1.945-3.347 17.031 17.031 0 0 1 2.781-2.849 18.87 18.87 0 0 1 3.21-2.047 27.695 27.695 0 0 1 3.917-1.587c1.641-.523 3.596-.961 5.877-1.328a65.28 65.28 0 0 1 7.246-.739c.812-1.304.923-1.541.923-2.42 0-.62-.743-1.256-1.706-1.256-.715 0-13.166.369-13.112.264L109.15 16c.228-.442 1.264-1.975 1.957-2.467zm43.974-.713l-15.11 29.483-1.002 2.035h-11.95c5.021-9.797 9.772-19.092 14.793-28.889.606-.883.196-.55 1.266-1.676.632-.616 1.938-.84 2.627-.953h9.376z" fill="#004990"/></svg>