<svg width="172" height="32" fill="none" xmlns="http://www.w3.org/2000/svg"><g clip-path="url(#clip0)"><path d="M171.6 24.5l-3.3-3.3-3.3 3.3 3.3 3.2 3.3-3.2z" fill="#DBC093"/><path d="M170.2 1c-.2-.8-2 .3-5.7 3.7 1.5 1.6 2.3.7 3.5.3 1 1.8 1.3 10.1-4.9 12.6.2-8.3.2-17.2.2-17.2 0-.2-.2-.3-.4-.3-1.7.2-4.8 3.3-7.2 5.8 1.3 2.1 3 .2 4.3-.3 0 .3-.3 6.5-.2 12.7-6.5.5-5.4-12.7-5.1-14.4.2-1.4-4.2 1.6-6.3 3.6.7 1.2 1.6 1 2.8.5-.4 5.9 3.7 11.3 8.6 11.2.2 6.1.8 12 2.6 12.4.2.1.4-6.2.6-13.1 11.7-3.6 7.2-17.5 7.2-17.5zM27.7 22.4V5h-4.6v17.5c0 3.8 1.8 5.8 6.3 5.8h2.9V25h-1.8c-2 0-2.8-.5-2.8-2.6zM96.9 5.3L90.1 23 83.4 5.3h-6.6v23.1h4.6V14.6c0-.9 0-2.4-.1-3.4h.1L88 28.4h4.2l6.6-17.2h.1c-.1 1-.1 2.5-.1 3.4v13.8h4.6V5.3h-6.5zM41.3 28.6c5.8 0 8.6-2 8.6-7.5V10.7h-4.6v10.4c0 3.2-1.9 4.3-4.1 4.3-2.2 0-4.1-1.2-4.1-4.3V10.7h-4.6v10.4c.2 5.5 3 7.5 8.8 7.5zm29.2-10.5v2.8c0 5.5-3.3 7.8-9.1 7.8s-9.1-2-9.1-7.5V5H57v6.6c1.5-.7 3.4-1.1 5.2-1.1 5.9 0 8.3 3.2 8.3 7.6zm-13.5 3c0 3.2 2.5 4.3 4.6 4.3 2.1 0 4.6-1.2 4.6-4.3V18c0-3.2-2.5-4.3-4.6-4.3-2.1 0-4.6 1.2-4.6 4.3v3.1zm77-10.6c1.8 0 3.7.4 5.2 1.1V5h4.6v16.1c0 5.5-3.3 7.5-9.1 7.5s-9.1-2.3-9.1-7.8V18c0-4.3 2.5-7.5 8.4-7.5zm5.2 7.5c0-3.2-2.5-4.3-4.6-4.3-2.1 0-4.6 1.2-4.6 4.3v3.2c0 3.2 2.5 4.3 4.6 4.3 2.1 0 4.6-1.2 4.6-4.3V18zm-18.7 5.7c-1.9 1.3-3.4 1.8-5.6 1.8-2.7 0-4.9-1.5-4.9-4.3v-.4h13.7v-1.4c0-5.5-3.3-8.9-9.1-8.9s-9.1 3.4-9.1 8.9v.6c0 5.3 3.2 8.6 9.3 8.6 3.1 0 5.8-.7 8.4-2.7l-2.7-2.2zM110 18c0-3.2 2.5-4.5 4.6-4.5 2.1 0 4.6 1.3 4.6 4.5H110zM11 28.6c-7.1 0-11-3.8-11-10v-3.2C0 9.1 4 5 11 5c6.1 0 9.8 3 10.6 7.2h-4.9c-.8-2.8-2.9-4-5.7-4-4 0-6.2 2.4-6.2 7.4v2.3c0 4.6 1.7 7.6 6.2 7.6 2.9 0 4.9-1.3 5.7-4h4.9c-.9 4.1-4.6 7.1-10.6 7.1z" fill="#3D5B98"/></g><defs><clipPath id="clip0"><path fill="#fff" d="M0 0h171.6v31.7H0z"/></clipPath></defs></svg>