<svg width="234" height="30" fill="none" xmlns="http://www.w3.org/2000/svg"><path fill-rule="evenodd" clip-rule="evenodd" d="M.432 7.372c-.553.101-.6.816.003.785.876-.045 4.901-.139 8.55.205 4.195.393 8.241 1.545 11.366 2.628 3.125 1.083 10.077 5.157 10.077 5.157s-8.975 5.25-11.99 13.055c-.159.42.05.546.57.23 11.483-7.047 19.457-11.349 33.414-14.174.884-.18.79-.295.03-.49-.763-.2-3.44-.693-10.337-3.353S28.598 6.308 20.806 5.7c-1.14-.09-2.32-.128-3.515-.128-8.039 0-16.628 1.765-16.86 1.8zM55.963.628c-2.182 2.699-6.748 6.124-11.098 7.917-.572.235-.436.597-.189.755.08.052.387.173.827.338l5.751 1.909c.48.155.45.12.655-.09 3.062-3.152 4.225-7.709 4.392-10.699 0 0 .036-.376-.047-.376-.053 0-.144.065-.29.246z" fill="#FFCD34"/><path fill-rule="evenodd" clip-rule="evenodd" d="M159.484 29.618h-3.679a.665.665 0 0 1-.556-.307L144.214 9.734v19.192a.68.68 0 0 1-.67.692h-3.677a.68.68 0 0 1-.669-.692V1.074a.68.68 0 0 1 .669-.691h3.677c.223 0 .433.115.556.306l11.075 18.789V1.074a.68.68 0 0 1 .669-.691h3.64c.371 0 .67.31.67.691v27.852a.68.68 0 0 1-.67.692zm38.754 0h-3.659a.682.682 0 0 1-.67-.692V1.074c0-.381.301-.691.67-.691h3.659c.371 0 .67.31.67.691v27.852a.68.68 0 0 1-.67.692zM177.332 30c-3.466 0-6.287-1.272-8.385-3.777-2.075-2.478-3.127-6.63-3.127-10.736v-1.05c0-2.684.486-5.897 1.448-7.945.974-2.077 2.379-3.697 4.173-4.815C173.229.565 175.32 0 177.655 0c3.106 0 5.641.893 7.537 2.655 1.537 1.427 2.567 3.332 3.063 5.663a.715.715 0 0 1-.133.582.662.662 0 0 1-.522.258h-3.737a.674.674 0 0 1-.647-.51c-.343-1.3-.868-2.291-1.563-2.945-.928-.873-2.272-1.315-3.998-1.315-2.14 0-3.767.765-4.971 2.34-1.225 1.604-1.847 4.765-1.847 7.794v1.071c0 2.862.591 5.967 1.76 7.625 1.134 1.612 2.682 2.395 4.735 2.395 1.864 0 3.294-.413 4.251-1.228.725-.617 1.277-1.637 1.643-3.032a.674.674 0 0 1 .646-.511h3.728c.205 0 .397.096.525.26.127.165.174.38.128.585-.526 2.401-1.61 4.335-3.219 5.748-1.937 1.702-4.529 2.565-7.702 2.565zm-95.272-.382H68.241a.682.682 0 0 1-.67-.692V1.074c0-.381.3-.691.67-.691h13.82c.37 0 .669.31.669.691v3.004a.68.68 0 0 1-.67.691h-9.49v7.587h9.49c.37 0 .67.31.67.694v3.001a.681.681 0 0 1-.67.694h-9.49v8.486h9.49c.37 0 .67.31.67.692v3.003a.68.68 0 0 1-.67.692zm49.226 0h-13.819a.682.682 0 0 1-.671-.692V1.074c0-.381.301-.691.671-.691h13.819c.371 0 .67.31.67.691v3.004a.68.68 0 0 1-.67.691h-9.49v7.587h9.49c.371 0 .67.31.67.694v3.001a.681.681 0 0 1-.67.694h-9.49v8.486h9.49c.371 0 .67.31.67.692v3.003a.68.68 0 0 1-.67.692zm80.429-7.515l-.672.317.189-.54 1.072-3.004 3.957-11.291 4.219 11.99c-3.263.65-5.782 1.35-8.765 2.528zm16.994 6.568L218.416.821a.65.65 0 0 0-.604-.438h-3.104a.653.653 0 0 0-.606.438l-10.275 27.85a.736.736 0 0 0 .068.644.64.64 0 0 0 .538.303h3.659c.374 0 .698.005.698.005 4.233-4.848 10.764-7.193 12.496-7.758l2.569 7.303c.096.27.338.45.609.45h3.64a.642.642 0 0 0 .538-.303.733.733 0 0 0 .067-.644zM99.832 29.997c-2.341 0-4.455-.57-6.28-1.692-1.835-1.128-3.273-2.751-4.274-4.823-.988-2.05-1.503-4.447-1.528-7.13v-2.433c0-4.345 1.026-7.779 3.05-10.204C92.849 1.262 95.75.02 99.42.02c3.001 0 5.466.801 7.322 2.381 1.336 1.137 2.314 2.647 2.909 4.487a.716.716 0 0 1-.09.625.65.65 0 0 1-.538.288h-3.77a.658.658 0 0 1-.596-.393c-.923-2.022-2.631-3.003-5.22-3.003-2.22 0-3.847.756-4.975 2.316-1.154 1.599-1.746 3.985-1.757 7.095v2.274c0 2.95.66 5.311 1.963 7.02 1.284 1.685 2.98 2.503 5.184 2.503 1.287 0 2.421-.145 3.373-.43.806-.242 1.492-.635 2.041-1.168V16.75h-4.449c-.366 0-.663-.31-.663-.691v-3c0-.382.297-.692.663-.692h9.384l-.016 12.905a.722.722 0 0 1-.123.403c-1.001 1.457-2.41 2.557-4.186 3.272-1.733.697-3.765 1.05-6.044 1.05zM233.268 4.195a2.12 2.12 0 0 1-.79.823 2.081 2.081 0 0 1-1.098.307 2.149 2.149 0 0 1-1.888-1.12 2.303 2.303 0 0 1-.286-1.128c0-.409.096-.785.287-1.13.194-.345.457-.617.793-.814a2.131 2.131 0 0 1 1.094-.295c.401 0 .77.104 1.108.309.338.205.6.478.783.82.186.341.278.711.278 1.11 0 .4-.094.773-.281 1.118zm.387-2.467a2.557 2.557 0 0 0-.956-.981 2.564 2.564 0 0 0-1.319-.359c-.475 0-.915.12-1.323.359a2.552 2.552 0 0 0-.957.981 2.73 2.73 0 0 0-.346 1.35c0 .487.117.939.348 1.354a2.6 2.6 0 0 0 4.553-.004c.231-.415.344-.865.344-1.35 0-.485-.113-.935-.344-1.35z" fill="#001C33"/><path fill-rule="evenodd" clip-rule="evenodd" d="M231.741 2.813a.55.55 0 0 1-.322.09h-.398v-.708h.393c.172.001.291.03.358.086.065.057.099.154.099.287a.284.284 0 0 1-.13.245zm.549 1.235a4.061 4.061 0 0 1-.01-.333.942.942 0 0 0-.073-.394.49.49 0 0 0-.253-.243c.222-.122.334-.293.334-.518 0-.24-.079-.425-.24-.554-.159-.13-.38-.195-.665-.195h-.783v2.447h.421v-.97h.44c.143 0 .246.032.306.097.062.063.092.168.092.315 0 .306.012.493.036.558h.432v-.047a.641.641 0 0 1-.037-.163z" fill="#001C33"/></svg>