<svg width="93" height="60" fill="none" xmlns="http://www.w3.org/2000/svg"><path d="M13.246 60l3.794-19.044h6.172L19.44 60h-6.194zm18.626-6.233h3.922l-1.007-6.988-2.915 6.988zM23.212 60l9.345-19.044h6.088L42.48 60h-5.723l-.343-2.265h-6.087L29.364 60h-6.152zm24.95 0l2.121-14.32h-5.401l.921-4.81h16.59l-.922 4.81h-5.144L54.248 60h-6.087zm20.747-6.233h3.922l-1.007-6.988-2.915 6.988zM60.27 60l9.324-19.044h6.087L79.518 60h-5.765l-.279-2.265h-6.087L66.422 60h-6.151zM93 19.432H63.958c-1.072 5.349-4.759 9.813-12.11 12.897.836 2.545 3.686 4.896 6.644 4.896h15.754c2.4 0 4.308-2.027 5.08-3.666H63.314c-.986-.173-1.03-.97-.043-1.057h15.732c2.036 0 3.88-1.747 4.951-3.645H65.63c-.921-.151-.921-.927 0-1.078h18.476c1.865 0 3.558-2.179 4.265-3.645H68.094c-1.007-.13-1.007-1.079 0-1.1h20.64c1.608 0 3.173-1.769 4.266-3.602zm-93 0h29.042c1.05 5.349 4.759 9.813 12.089 12.897-.836 2.545-3.687 4.896-6.645 4.896H18.755c-2.4 0-4.308-2.027-5.08-3.666h16.011c.965-.173 1.03-.97.043-1.057H13.975c-2.037 0-3.88-1.747-4.93-3.645h18.347c.922-.151.922-.927 0-1.078H8.916c-1.864 0-3.558-2.179-4.265-3.645h20.276c1.008-.13 1.008-1.079 0-1.1H4.287c-1.63 0-3.194-1.769-4.287-3.602zM37.08 3.386c1.072.927 2.272 1.747 3.558 2.265C41.73 3.494 43.253 1.639 45.01 0c-2.893.388-5.615 1.488-7.93 3.386zM31.936 14.02h6.473c.15-2.675.707-5.025 1.757-7.441a15.571 15.571 0 0 1-3.88-2.459c-2.678 2.696-4.157 6.169-4.35 9.9zm14.06-6.104v6.104h-6.473c.043-2.394.6-4.853 1.608-7.074 1.543.56 3.215.927 4.865.97zm9.924-4.529c-1.05.927-2.293 1.747-3.558 2.265-1.157-2.2-2.593-3.969-4.394-5.63 2.915.367 5.637 1.467 7.952 3.365zm5.123 10.633H54.59c-.086-2.632-.686-5.09-1.715-7.441 1.372-.647 2.68-1.467 3.816-2.459 2.786 2.804 4.222 6.255 4.35 9.9zM47.047 7.915v6.104h6.43c0-2.459-.6-4.81-1.608-7.074-1.543.56-3.194.927-4.822.97zM37.08 25.73c1.072-.841 2.315-1.769 3.558-2.222 1.157 2.179 2.593 3.969 4.372 5.586-2.893-.388-5.658-1.488-7.93-3.364zm-5.144-10.655h6.473c.15 2.696.707 5.069 1.757 7.506a16.133 16.133 0 0 0-3.88 2.437c-2.635-2.674-4.157-6.147-4.35-9.943zm14.06 6.126v-6.126h-6.473c.043 2.46.6 4.896 1.608 7.075 1.543-.561 3.215-.906 4.865-.95zm9.924 4.529c-1.007-.885-2.293-1.704-3.558-2.222-1.157 2.179-2.593 3.969-4.394 5.586 2.915-.388 5.637-1.488 7.952-3.364zm5.123-10.655H54.59c-.086 2.696-.664 5.09-1.715 7.506a17.095 17.095 0 0 1 3.816 2.437c2.657-2.674 4.222-6.233 4.35-9.943zm-13.996 6.126v-6.126h6.43c0 2.46-.6 4.853-1.608 7.075a15.467 15.467 0 0 0-4.822-.95zM45.997.625a17.086 17.086 0 0 0-4.352 5.392c1.393.475 2.872.863 4.351.863V.625zm1.05 0c1.714 1.424 3.279 3.3 4.308 5.392-1.393.518-2.872.863-4.308.863V.625zm-1.05 27.865c-1.758-1.402-3.323-3.343-4.352-5.413a13.03 13.03 0 0 1 4.351-.777v6.19zm1.05.043c1.714-1.445 3.279-3.386 4.308-5.456-1.393-.453-2.872-.777-4.308-.777v6.233z" fill="#004E81"/></svg>