<svg width="102" height="40" fill="none" xmlns="http://www.w3.org/2000/svg"><path fill-rule="evenodd" clip-rule="evenodd" d="M49.828 8.458h1.09L52.335.164V0h-2.18s-.164 0-.164.164c0 .163.164.163.164.163.926.164.926.328.763 1.42l-1.09 6.711z" fill="#C6C6C6"/><path fill-rule="evenodd" clip-rule="evenodd" d="M34.345 2.02l-22.406-.601c-.327 0-.49-.164-.49-.491 0-.164.163-.328.49-.328 0 0 8.94-.327 18.644-.6h.164c1.254.546 2.453 1.255 3.598 2.02zm5.997 6.275L4.852 7.203c-.327 0-.49-.164-.49-.327v-.164c.054-.11.163-.164.217-.273.055-.054.164-.054.273-.054 0 0 20.389-.6 33.2-1.092.873.982 1.636 1.965 2.29 3.002zm3.216 13.37h-1.09L.328 20.41c-.164 0-.328-.164-.328-.491 0-.164.164-.328.327-.328 0 0 31.783-1.091 41.05-1.255h2.291c.054.546.054 1.037.054 1.583 0 .6 0 1.145-.055 1.746h-.109zm-.436 3.274L1.417 26.194c-.109 0-.327.163-.381.327l.163.491c.055.055.164.11.218.11 0 0 30.856.927 40.56 1.254a18.091 18.091 0 0 0 1.145-3.438zm-2.834 6.766l-35.436.928c-.327 0-.49.327-.49.49v.056c.108.163.217.272.326.436h.164s20.389.6 33.2.928h.055a26.241 26.241 0 0 0 2.18-2.838zm-5.779 6.112l-22.57.764c-.327 0-.49.164-.49.491 0 .164.163.328.49.328 0 0 8.886.327 18.753.6a26.487 26.487 0 0 0 3.817-2.183zm64.656-22.756H43.56L1.418 13.806c-.164 0-.49-.327-.49-.49 0-.328.326-.492.49-.492 0 0 31.783-.928 41.05-1.255h57.188c.763 0 .6.6.6.6l-.327 2.183c.054.054-.11.71-.764.71z" fill="#312783"/><path fill-rule="evenodd" clip-rule="evenodd" d="M52.499 8.458h.927l.6-3.11c.163-.764.926-1.855 1.58-1.855.764 0 .6.764.491 1.746l-.6 3.274h1.09l.6-4.256c.164-.928 0-1.747-.926-1.747-.927 0-1.745 1.255-2.018 1.583l.328-1.419h-.164V2.51h-1.853v.328c.6 0 .763.6.6 1.418l-.655 4.202zm7.686-.436h-.49c-.763 0-.763-.327-.6-1.255l.6-3.765h1.254s.163 0 .163-.164v-.327h-1.254l.328-1.746h-.927s-.164-.164-.164 0v.163l-.327 1.583h-.763s-.327 0-.327.327c0 .164.163.164.163.164h.764l-.6 3.93c-.327 1.418.327 1.582 1.254 1.582h.763l.163-.492zm5.18.436h.927l.6-3.001c.163-.928.6-1.855 1.58-1.855.328 0 .491.163.6.163l.164-1.091c-.164-.164-.327-.164-.6-.164-.763 0-1.254 1.092-1.58 1.747l.326-1.42s0-.163-.163-.163c0-.164-.164 0-.164 0H65.31v.164c.6 0 .764.6.6 1.418l-.545 4.202zm11.721 0h1.09l.6-3.765c.163-1.255.163-2.183-1.417-2.183-1.581 0-2.018.928-2.181 1.747h1.254c0-.6.163-1.256.927-1.256.6 0 .49.764.327 1.583l-.164.6c-.6 0-2.671.164-2.998 1.856-.164.764.327 1.418 1.09 1.418.763 0 1.254-.6 1.58-.764l-.108.764zm.327-2.019c-.163.764-.6 1.42-1.254 1.42-.327 0-.49-.328-.49-.929.327-1.091 1.417-1.255 1.853-1.255l-.109.764zm9.377 2.019c1.58 0 2.344-.927 2.834-3.001.328-1.746-.326-3.001-1.853-3.001-1.417 0-2.344.927-2.671 3-.327 1.747 0 3.002 1.69 3.002zm-.6-2.947c.164-1.09.49-2.51 1.581-2.51.927 0 .763 1.42.6 2.51-.164 1.256-.491 2.674-1.581 2.674-.927 0-.764-1.582-.6-2.674zm11.121 2.947h1.09l.6-3.765c.327-1.255.164-2.183-1.254-2.183-1.58 0-2.017.928-2.344 1.747h1.254c.164-.6.327-1.256.927-1.256.6 0 .6.764.49 1.583l-.163.6c-.6 0-2.835.164-3.107 1.856-.164.764.327 1.418 1.253 1.418.764 0 1.254-.6 1.418-.764l-.164.764zm.491-2.019c-.164.764-.6 1.42-1.254 1.42-.49 0-.6-.328-.49-.929.163-1.091 1.417-1.255 1.744-1.255v.764zM69.563 8.458h.926l.6-3.11c.163-.764.927-1.855 1.58-1.855.764 0 .6.764.492 1.746l-.6 3.274h1.09l.763-4.256c.164-.928-.163-1.747-1.09-1.747s-1.744 1.255-2.017 1.583l.327-1.419-.163-.164h-1.854v.328c.6 0 .763.6.6 1.418l-.654 4.202zm20.389 0h.926l.6-3.11c.164-.764.927-1.855 1.581-1.855.763 0 .6.764.49 1.746l-.599 3.274h1.09l.6-4.256c.327-.928 0-1.747-.927-1.747-.926 0-1.744 1.255-2.017 1.583l.327-1.419h-.163V2.51h-1.854v.328c.6 0 .763.6.6 1.418l-.654 4.202zM64.384 7.53c-.164.164-.49.328-.927.328-1.58 0-1.745-1.746-1.417-3.001h2.998c.164-.928.327-2.347-1.58-2.347-1.418 0-2.345.764-2.672 2.838-.327 2.019.49 3.11 2.017 3.11.6 0 1.254-.327 1.58-.327v-.6zM62.04 4.42c.163-.49.49-1.582 1.254-1.582.926 0 .763 1.255.763 1.582H62.04zM84.282.765h.49c.164 0 .328.163.328.327l-.164.491c0 .164 0 .328-.163.328h-.49a.352.352 0 0 1-.328-.328v-.49c.055-.165.218-.328.327-.328zm-1.254 2.237c.491 0 .6.6.491 1.255l-.763 4.093h1.09l.927-5.512v-.163c0-.164-.164-.164-.164-.164h-3.27l.326-1.746h-.926s-.164-.164-.164 0v.163l-.327 1.583h-.763s-.164 0-.164.327v.164h.927l-.763 3.93c-.164 1.418.327 1.582 1.417 1.582h.6l.163-.492h-.49c-.763 0-.763-.327-.6-1.255l.6-3.765h1.853zm16.301 5.456h1.09L102 .164 101.836 0h-2.18l-.164.164c0 .163.164.163.164.163.926.164 1.09.328.763 1.42l-1.09 6.711zM60.95 30.723c0 6.276 3.924 9.277 8.45 9.277 7.85 0 13.138-6.603 13.138-12.551 0-6.276-3.762-9.277-8.287-9.277-7.96 0-13.302 6.603-13.302 12.551zm5.015 2.237c0-5.948 3.761-13.315 8.123-13.315 2.507 0 3.598 2.838 3.598 5.621 0 6.112-3.762 13.315-8.123 13.315-2.672 0-3.598-2.838-3.598-5.62zm17.39.273c.164-.6-.6-.927-.763-.163v.163a123.94 123.94 0 0 1-.927 5.184c-.164.6.763 1.092 1.254 1.255 1.254.164 2.344.328 3.434.328 3.926 0 7.687-2.347 8.45-6.44.491-2.019.164-3.11-.6-4.365-1.58-2.674-4.688-3.929-4.251-6.276.327-1.746 2.344-2.837 3.925-2.837 2.344 0 3.761 1.419 3.598 3.929-.164.491.6.764.763.164.164-.6.6-3.438.6-4.366.163-.491-.327-.928-.6-.928-1.09-.49-2.18-.6-3.434-.6-3.599 0-8.014 2.838-8.778 6.44-1.09 5.347 5.343 6.602 4.525 10.368-.49 2.346-2.344 3.438-4.361 3.438-2.18-.11-3.271-1.365-2.835-5.294zm-36.962 0c.164-.6-.6-.927-.763-.163v.163a123.94 123.94 0 0 1-.927 5.184c-.163.6.763 1.092 1.254 1.255 1.254.164 2.344.328 3.435.328 3.925 0 7.686-2.347 8.45-6.44.49-2.019.163-3.11-.6-4.365-1.581-2.674-4.688-3.929-4.252-6.276.327-1.746 2.344-2.837 3.925-2.837 2.344 0 3.761 1.419 3.598 3.929-.164.491.6.764.763.164.164-.6.6-3.438.6-4.366.163-.491-.327-.928-.6-.928-1.09-.49-2.18-.6-3.434-.6-3.599 0-8.014 2.838-8.777 6.44-1.09 5.347 5.342 6.602 4.524 10.368-.49 2.346-2.344 3.438-4.361 3.438-2.235-.11-3.325-1.365-2.835-5.294z" fill="#C6C6C6"/></svg>