<svg width="123" height="43" fill="none" xmlns="http://www.w3.org/2000/svg"><path d="M76.985 17.384L88.253.64H78.181l-8.435 12.526h-4.154V.64H57.22v33.488h8.372v-12.59h4.154l8.435 12.59h10.072L76.985 17.384zM92.093.64v33.488h8.372V9.012h13.911v25.116h8.372V.64H92.093zM22.347 9.012h8.372V.64h-8.372v8.372z" fill="#2E1363"/><path d="M22.347 21.538h8.372v-8.372h-8.372v8.372z" fill="#EC1C24"/><path d="M22.347 34.128h8.372v-8.372h-8.372v8.372z" fill="#009345"/><path d="M19.577 21.538v-8.372h-8.372v8.372h8.372z" fill="#2E1363"/><path d="M11.205 34.128h8.372v-8.372h-8.372v8.372z" fill="#EC1C24"/><path d="M0 34.128h8.372v-8.372H0v8.372zM44.63 9.012h8.372V.64H44.63v8.372zM41.86.64h-8.372v33.488h8.372V.64zM1.259 39.29H.126v-.882h3.273v.882H2.33v3.147H1.26V39.29zm2.707-.882H5.98c.881 0 1.385.63 1.385 1.322 0 .756-.504 1.322-1.385 1.322H4.973v1.385H3.966v-4.029zm1.888.882h-.881v.88h.818c.252 0 .504-.188.504-.44a.43.43 0 0 0-.44-.44zm4.155 2.518h-1.7l-.189.63H6.987l1.511-4.03H9.82l1.51 4.03h-1.132l-.19-.63zm-1.448-.882h1.133l-.566-1.636-.567 1.636zm5.791-.126h-1.7v1.637h-1.07v-4.029h1.07v1.511h1.7v-1.51h1.07v4.028h-1.07V40.8zm1.574-.377c0-1.26.944-2.078 2.14-2.078 1.007 0 1.51.567 1.763 1.07l-.882.441c-.125-.315-.503-.566-.88-.566-.63 0-1.071.503-1.071 1.196 0 .63.44 1.196 1.07 1.196.44 0 .756-.252.881-.567l.882.44a1.92 1.92 0 0 1-1.763 1.07c-1.196-.125-2.14-.943-2.14-2.202zm7.113-1.133h-1.7v3.147h-1.07v-4.029h3.777v4.03h-1.07V39.29h.063zm3.714-.944c1.259 0 2.14.88 2.14 2.077 0 1.196-.944 2.077-2.14 2.077-1.26 0-2.14-.881-2.14-2.077s.944-2.078 2.14-2.078zm0 .88c-.692 0-1.133.504-1.133 1.197 0 .63.44 1.196 1.133 1.196.692 0 1.07-.504 1.07-1.196.063-.693-.378-1.196-1.07-1.196zm2.707-.818h2.014c.881 0 1.385.63 1.385 1.322 0 .756-.504 1.322-1.385 1.322h-1.007v1.385h-1.07v-4.029h.063zm1.888.882h-.818v.88h.818c.252 0 .504-.188.504-.44s-.252-.44-.504-.44zm2.896 0H33.11v-.882h3.273v.882H35.25v3.147h-1.07V39.29h.063zm5.413 1.51h-1.7v1.637h-1.07v-4.029h1.07v1.511h1.7v-1.51h1.07v4.028h-1.07V40.8zm4.344 1.008h-1.7l-.189.63H40.98l1.51-4.03h1.323l1.51 4.03H44.19l-.188-.63zm-1.385-.882h1.133l-.567-1.636-.566 1.636zm3.65 0c-.377-.126-.818-.503-.818-1.196 0-.755.504-1.322 1.385-1.322h2.015v4.03H47.84v-1.386h-.503l-.693 1.385h-1.196l.819-1.51zm1.574-1.636h-.818c-.252 0-.503.188-.503.44 0 .315.251.44.503.44h.818v-.88zm4.659 1.636l-.252.315v1.196h-1.07v-4.029h1.07v1.637l1.259-1.637h1.259l-1.574 1.889 1.637 2.14h-1.26l-1.07-1.51zm3.273-1.448l.063-1.133h3.021v4.03h-1.07v-3.148h-1.133l-.063.44c-.189 2.392-.944 2.77-1.825 2.77V41.43c.503.063.88-.126 1.007-1.952zm4.91-1.07v2.518l1.636-2.518h1.07v4.03h-1.07v-2.645l-1.7 2.644h-1.006v-4.029h1.07zm3.399 0h2.014c.882 0 1.385.63 1.385 1.322 0 .756-.504 1.322-1.385 1.322h-1.007v1.385h-1.07v-4.029h.063zm1.888.882h-.818v.88h.818c.252 0 .504-.188.504-.44s-.189-.44-.504-.44zm3.085-.882v2.518l1.636-2.518h1.07v4.03h-1.07v-2.645l-1.7 2.644h-1.006v-4.029h1.07zm6.169 2.392h-1.7v1.637h-1.07v-4.029h1.07v1.511h1.7v-1.51h1.07v4.028h-1.07V40.8zm1.762-2.392h2.959v.882h-1.952v3.147h-1.07v-4.029h.063zm5.225-.063c1.259 0 2.14.882 2.14 2.078 0 1.196-.944 2.077-2.14 2.077-1.196 0-2.14-.881-2.14-2.077s.944-2.078 2.14-2.078zm0 .882c-.692 0-1.133.503-1.133 1.196 0 .63.44 1.196 1.133 1.196.692 0 1.07-.504 1.07-1.196.063-.693-.378-1.196-1.07-1.196zm2.707-.819h2.266c.818 0 1.196.504 1.196 1.008 0 .503-.315.818-.693.944.441.063.756.503.756 1.007 0 .567-.378 1.07-1.196 1.07h-2.392v-4.029h.063zm2.077 1.511c.189 0 .378-.126.378-.377 0-.19-.126-.315-.378-.315h-1.007v.692h1.007zm0 1.637c.252 0 .378-.126.378-.378 0-.189-.126-.378-.378-.378h-1.07v.756h1.07zm4.658.252h-1.7l-.188.63H88.63l1.51-4.03h1.322l1.511 4.03H91.84l-.189-.63zm-1.448-.882h1.133l-.566-1.636-.567 1.636zm3.714 0c-.378-.126-.818-.503-.818-1.196 0-.755.504-1.322 1.385-1.322h2.014v4.03h-1.07v-1.386h-.504l-.692 1.385h-1.196l.881-1.51zm1.574-1.636h-.818c-.252 0-.504.188-.504.44 0 .315.252.44.504.44h.818v-.88zm6.043 0h-1.7v3.147h-1.007v-4.029h3.777v4.03h-1.07V39.29zm4.343 2.518h-1.699l-.189.63h-1.133l1.511-4.03h1.321l1.511 4.03h-1.133l-.189-.63zm-1.385-.882h1.134l-.567-1.636-.567 1.636zm3.714-1.448l.063-1.07h3.022v4.03h-1.07V39.29h-1.133l-.063.44c-.189 2.392-.945 2.77-1.826 2.77v-1.007c.504 0 .881-.189 1.007-2.015zm6.421 2.33h-1.7l-.188.63h-1.133l1.51-4.03h1.322l1.511 4.03h-1.133l-.189-.63zm-1.385-.882h1.133l-.566-1.636-.567 1.636zm3.525-1.636h-1.133v-.882h3.273v.882h-1.133v3.147h-1.07V39.29h.063zm4.91 2.518h-1.699l-.189.63h-1.133l1.51-4.03h1.322l1.511 4.03h-1.133l-.189-.63zm-1.448-.882h1.133l-.566-1.636-.567 1.636z" fill="#2E1363"/></svg>