<svg width="40" height="50" fill="none" xmlns="http://www.w3.org/2000/svg"><path d="M19.99 5.845h-6.681a.783.783 0 0 0 0 1.566h6.68a.783.783 0 0 0 0-1.566zm-5.846 6.681h-.835a.783.783 0 0 0 0 1.566h.835a.783.783 0 1 0 0-1.566zm14.196 5.846H4.958a.783.783 0 0 0 0 1.565H28.34a.783.783 0 1 0 0-1.565zm-15.866 5.01H9.969a.783.783 0 0 0 0 1.566h2.505a.783.783 0 0 0 0-1.566z" fill="#1D293F"/><path d="M6.628 23.382h-1.67a.783.783 0 0 0 0 1.566h1.67a.783.783 0 0 0 0-1.566z" fill="#721B2B"/><path d="M12.474 26.722H9.969a.783.783 0 0 0 0 1.566h2.505a.783.783 0 0 0 0-1.566z" fill="#1D293F"/><path d="M6.628 26.722h-1.67a.783.783 0 0 0 0 1.566h1.67a.783.783 0 0 0 0-1.566z" fill="#721B2B"/><path d="M12.474 30.063H9.969a.783.783 0 0 0 0 1.565h2.505a.783.783 0 1 0 0-1.565z" fill="#1D293F"/><path d="M6.628 30.063h-1.67a.783.783 0 0 0 0 1.565h1.67a.783.783 0 1 0 0-1.565z" fill="#721B2B"/><path d="M12.474 33.403H9.969a.783.783 0 0 0 0 1.566h2.505a.783.783 0 0 0 0-1.566z" fill="#1D293F"/><path d="M6.628 33.403h-1.67a.783.783 0 0 0 0 1.566h1.67a.783.783 0 0 0 0-1.566z" fill="#721B2B"/><path d="M12.474 36.743H9.969a.783.783 0 0 0 0 1.566h2.505a.783.783 0 0 0 0-1.566z" fill="#1D293F"/><path d="M6.628 36.743h-1.67a.783.783 0 0 0 0 1.566h1.67a.783.783 0 0 0 0-1.566z" fill="#721B2B"/><path d="M22.495 12.526h-.835a.783.783 0 0 0 0 1.566h.835a.783.783 0 1 0 0-1.566zm4.175 0h-.835a.783.783 0 0 0 0 1.566h.835a.783.783 0 1 0 0-1.566zm-8.35 0h-.836a.783.783 0 0 0 0 1.566h.835a.783.783 0 1 0 0-1.566zm3.34-3.34h-8.351a.783.783 0 1 0 0 1.566h8.35a.783.783 0 0 0 0-1.566z" fill="#1D293F"/><path d="M36.691 21.712H33.3V9.134a.782.782 0 0 0-.23-.554L24.72.23a.783.783 0 0 0-.554-.23H2.453A2.456 2.456 0 0 0 0 2.453v40.084c0 1.352 1.1 2.453 2.453 2.453h12.578v1.722A3.292 3.292 0 0 0 18.32 50h18.372a3.292 3.292 0 0 0 3.288-3.288V25a3.292 3.292 0 0 0-3.288-3.288zM24.948 2.672l5.678 5.679H26.67c-.95 0-1.722-.773-1.722-1.723V2.673zM15.031 25v18.424H2.453a.888.888 0 0 1-.887-.888V2.453c0-.49.398-.887.887-.887h20.93v5.062a3.292 3.292 0 0 0 3.287 3.288h5.063v11.796H18.32A3.292 3.292 0 0 0 15.03 25zm23.383 21.712c0 .95-.773 1.722-1.723 1.722H18.32c-.95 0-1.722-.772-1.722-1.722V25c0-.95.773-1.723 1.723-1.723H36.69c.95 0 1.723.773 1.723 1.723v21.712z" fill="#1D293F"/><path d="M35.021 25.052H19.99a1.62 1.62 0 0 0-1.618 1.618v3.34a1.62 1.62 0 0 0 1.618 1.618h15.03a1.62 1.62 0 0 0 1.618-1.618v-3.34a1.62 1.62 0 0 0-1.618-1.618zm.052 4.958a.052.052 0 0 1-.052.053H19.99a.052.052 0 0 1-.052-.053v-3.34c0-.029.023-.052.052-.052h15.03c.029 0 .052.023.052.052v3.34z" fill="#1D293F"/><path d="M21.66 34.238h-1.67a1.62 1.62 0 0 0-1.618 1.618v1.67a1.62 1.62 0 0 0 1.618 1.618h1.67a1.62 1.62 0 0 0 1.618-1.618v-1.67a1.62 1.62 0 0 0-1.618-1.618zm.052 3.288a.052.052 0 0 1-.052.052h-1.67a.052.052 0 0 1-.052-.052v-1.67c0-.029.023-.052.052-.052h1.67c.029 0 .052.023.052.052v1.67zm13.308-3.288h-1.67a1.62 1.62 0 0 0-1.617 1.618v1.67a1.62 1.62 0 0 0 1.618 1.618h1.67a1.62 1.62 0 0 0 1.618-1.618v-1.67a1.62 1.62 0 0 0-1.618-1.618zm.053 3.288a.052.052 0 0 1-.052.052h-1.67a.052.052 0 0 1-.052-.052v-1.67c0-.029.023-.052.052-.052h1.67c.029 0 .052.023.052.052v1.67z" fill="#721B2B"/><path d="M28.34 34.238h-1.67a1.62 1.62 0 0 0-1.618 1.618v1.67a1.62 1.62 0 0 0 1.618 1.618h1.67a1.62 1.62 0 0 0 1.618-1.618v-1.67a1.62 1.62 0 0 0-1.618-1.618zm.052 3.288a.052.052 0 0 1-.052.052h-1.67a.052.052 0 0 1-.052-.052v-1.67c0-.029.024-.052.052-.052h1.67c.03 0 .052.023.052.052v1.67zm-6.732 3.393h-1.67a1.62 1.62 0 0 0-1.618 1.617v1.67a1.62 1.62 0 0 0 1.618 1.618h1.67a1.62 1.62 0 0 0 1.618-1.617v-1.67a1.62 1.62 0 0 0-1.618-1.618zm.052 3.288a.052.052 0 0 1-.052.052h-1.67a.052.052 0 0 1-.052-.053v-1.67c0-.028.023-.052.052-.052h1.67c.029 0 .052.024.052.052v1.67zm13.308-3.288h-1.67a1.62 1.62 0 0 0-1.617 1.617v1.67a1.62 1.62 0 0 0 1.618 1.618h1.67a1.62 1.62 0 0 0 1.618-1.617v-1.67a1.62 1.62 0 0 0-1.618-1.618zm.053 3.288a.052.052 0 0 1-.052.052h-1.67a.052.052 0 0 1-.052-.053v-1.67c0-.028.023-.052.052-.052h1.67c.029 0 .052.024.052.052v1.67z" fill="#1D293F"/><path d="M28.34 40.919h-1.67a1.62 1.62 0 0 0-1.618 1.617v1.67a1.62 1.62 0 0 0 1.618 1.618h1.67a1.62 1.62 0 0 0 1.618-1.617v-1.67a1.62 1.62 0 0 0-1.618-1.618zm.052 3.288a.052.052 0 0 1-.052.052h-1.67a.052.052 0 0 1-.052-.053v-1.67c0-.028.024-.052.052-.052h1.67c.03 0 .052.024.052.052v1.67zM4.734 12.432a.495.495 0 0 1-.324-.108.355.355 0 0 1-.12-.276c0-.113.04-.205.12-.277a.495.495 0 0 1 .324-.108H8.42a.45.45 0 0 1 .313.108.341.341 0 0 1 .132.277.341.341 0 0 1-.132.276.449.449 0 0 1-.313.108H4.734zm0-1.646a.464.464 0 0 1-.324-.12.465.465 0 0 1-.12-.324c0-.136.04-.244.12-.324a.44.44 0 0 1 .324-.133H6.98v.901H4.734zm1.201 3.316a.456.456 0 0 1-.336-.133.456.456 0 0 1-.132-.336V5.19c0-.136.044-.248.132-.336a.456.456 0 0 1 .336-.133h2.402c.593 0 1.117.133 1.574.397a2.74 2.74 0 0 1 1.069 1.069c.264.456.396.985.396 1.585 0 .585-.132 1.105-.396 1.562a2.854 2.854 0 0 1-1.07 1.069c-.456.256-.98.384-1.573.384H6.403v2.847a.456.456 0 0 1-.132.336.456.456 0 0 1-.336.133zm.468-4.217h1.934c.417 0 .781-.088 1.093-.264a1.93 1.93 0 0 0 .745-.757c.184-.32.276-.684.276-1.093 0-.424-.092-.796-.276-1.117a1.932 1.932 0 0 0-.745-.756 2.112 2.112 0 0 0-1.093-.277H6.403v4.264z" fill="#721B2B"/></svg>