<svg width="50" height="40" fill="none" xmlns="http://www.w3.org/2000/svg"><path d="M35.738 14.318h-1.79a.839.839 0 0 0 0 1.678h1.79a.839.839 0 0 0 0-1.678zm.221 6.93a1.723 1.723 0 0 0-1.367-.667H15.408c-.538 0-1.036.244-1.367.667-.33.424-.446.966-.315 1.488l.447 1.79a1.732 1.732 0 0 0 1.682 1.313h18.29c.797 0 1.488-.54 1.682-1.313l.447-1.79a1.723 1.723 0 0 0-.315-1.488zm-1.313 1.081l-.447 1.79a.056.056 0 0 1-.054.042h-18.29a.056.056 0 0 1-.054-.042l-.447-1.79a.051.051 0 0 1 .01-.048c.016-.021.036-.021.044-.021h19.184c.008 0 .027 0 .044.021.017.021.012.04.01.048z" fill="#1D293F"/><path d="M47.371 15.995A2.631 2.631 0 0 0 50 13.367c0-1.45-1.18-2.629-2.629-2.629h-.894a2.633 2.633 0 0 0-2.595 2.21l-2.238-6.154a3.534 3.534 0 0 0-3.312-2.32h-6.38l-.473-2.36A2.636 2.636 0 0 0 28.902 0h-7.804a2.636 2.636 0 0 0-2.578 2.113l-.472 2.361h-6.38a3.534 3.534 0 0 0-3.312 2.32l-2.238 6.154a2.633 2.633 0 0 0-2.594-2.21h-.895A2.632 2.632 0 0 0 0 13.367c0 1.45 1.18 2.628 2.629 2.628h.894a2.62 2.62 0 0 0 1.153-.266l-1.918 2.397a4.434 4.434 0 0 0-.968 2.76v16.642c0 .956.777 1.734 1.733 1.734h2.685c.956 0 1.734-.778 1.734-1.734v-3.636h34.116v3.636c0 .956.778 1.734 1.734 1.734h2.684c.956 0 1.734-.778 1.734-1.734V20.886c0-1-.344-1.98-.968-2.76l-1.918-2.397c.348.17.74.266 1.153.266h.894zM3.524 14.318h-.895a.952.952 0 0 1 0-1.902h.895a.952.952 0 0 1 0 1.902zM20.166 2.442a.953.953 0 0 1 .932-.764h7.804c.451 0 .844.321.932.764l.407 2.032H19.759l.407-2.032zM6.264 37.528c0 .03-.025.056-.056.056H3.523a.056.056 0 0 1-.056-.056v-4.16c.538.332 1.17.524 1.846.524h.95v3.636h.001zm28.635-5.313H15.101v-1.846c0-.03.025-.056.056-.056h19.687c.03 0 .055.025.055.056v1.846zm11.633 5.313c0 .03-.025.056-.055.056h-2.685a.056.056 0 0 1-.056-.056v-3.636h.95c.677 0 1.31-.192 1.846-.523v4.159zm-.6-18.354c.387.485.6 1.093.6 1.712v9.483a1.848 1.848 0 0 1-1.845 1.846h-8.11v-1.846c0-.956-.778-1.734-1.734-1.734H15.157c-.956 0-1.734.778-1.734 1.734v1.846h-8.11a1.848 1.848 0 0 1-1.845-1.846v-9.483c0-.62.213-1.227.6-1.712l2.543-3.179H30.37a.839.839 0 0 0 0-1.677H7.406l2.527-6.951a1.851 1.851 0 0 1 1.735-1.215h26.664c.774 0 1.47.488 1.735 1.215l2.527 6.95h-3.276a.839.839 0 0 0 0 1.678h4.071l2.543 3.18zm-.406-5.807c0-.525.426-.951.95-.951h.895a.952.952 0 0 1 0 1.902h-.895a.952.952 0 0 1-.95-.951z" fill="#1D293F"/><path d="M8.893 26.846c-.956 0-1.734.777-1.734 1.733 0 .956.778 1.734 1.734 1.734s1.733-.778 1.733-1.734-.777-1.733-1.733-1.733zm32.214 0a1.734 1.734 0 0 0 0 3.467c.956 0 1.734-.778 1.734-1.734s-.778-1.733-1.734-1.733z" fill="#1D293F"/><path d="M8.445 19.687a3.08 3.08 0 0 0-3.076 3.076 3.08 3.08 0 0 0 3.076 3.076 3.08 3.08 0 0 0 3.076-3.076 3.08 3.08 0 0 0-3.076-3.076zm0 4.474a1.4 1.4 0 0 1-1.398-1.398 1.4 1.4 0 0 1 1.398-1.399 1.4 1.4 0 0 1 1.398 1.399 1.4 1.4 0 0 1-1.398 1.398zm33.11-4.474a3.08 3.08 0 0 0-3.076 3.076 3.08 3.08 0 0 0 3.076 3.076 3.08 3.08 0 0 0 3.076-3.076 3.08 3.08 0 0 0-3.076-3.076zm0 4.474a1.4 1.4 0 0 1-1.398-1.398 1.4 1.4 0 0 1 1.398-1.399 1.4 1.4 0 0 1 1.398 1.399 1.4 1.4 0 0 1-1.398 1.398z" fill="#721B2B"/></svg>