<svg width="50" height="50" fill="none" xmlns="http://www.w3.org/2000/svg"><rect x="24.038" y="11.058" width="1.923" height="12.019" rx=".962" fill="#1D293F"/><rect x="24.038" y="4.327" width="1.923" height="3.125" rx=".962" fill="#1D293F"/><rect x="24.038" y="42.548" width="1.923" height="3.125" rx=".962" fill="#1D293F"/><rect x="4.327" y="25.961" width="1.923" height="3.125" rx=".962" transform="rotate(-90 4.327 25.961)" fill="#1D293F"/><rect x="42.548" y="25.961" width="1.923" height="3.125" rx=".962" transform="rotate(-90 42.548 25.961)" fill="#1D293F"/><rect x="13.831" y="7.578" width="1.923" height="3.125" rx=".962" transform="rotate(-30 13.83 7.578)" fill="#1D293F"/><rect x="32.941" y="40.678" width="1.923" height="3.125" rx=".962" transform="rotate(-30 32.941 40.678)" fill="#1D293F"/><rect x="7.577" y="36.169" width="1.923" height="3.125" rx=".962" transform="rotate(-120 7.577 36.17)" fill="#1D293F"/><rect x="40.678" y="17.059" width="1.923" height="3.125" rx=".962" transform="rotate(-120 40.678 17.059)" fill="#1D293F"/><rect x="6.616" y="15.496" width="1.923" height="3.125" rx=".962" transform="rotate(-60 6.616 15.496)" fill="#1D293F"/><rect x="39.716" y="34.607" width="1.923" height="3.125" rx=".962" transform="rotate(-60 39.716 34.607)" fill="#1D293F"/><rect x="15.496" y="43.384" width="1.923" height="3.125" rx=".962" transform="rotate(-150 15.496 43.384)" fill="#1D293F"/><rect x="34.607" y="10.284" width="1.923" height="3.125" rx=".962" transform="rotate(-150 34.607 10.284)" fill="#1D293F"/><rect x="36.298" y="24.039" width="1.923" height="8.894" rx=".962" transform="rotate(90 36.298 24.039)" fill="#1D293F"/><circle cx="25" cy="25" r="2.644" stroke="#721B2B" stroke-width="1.923"/><circle cx="25" cy="25" r="24.038" stroke="#1D293F" stroke-width="1.923"/><circle cx="25" cy="25" r="20.433" stroke="#721B2B" stroke-width="1.923"/></svg>