<svg width="51" height="51" fill="none" xmlns="http://www.w3.org/2000/svg"><rect x="20.075" y="20.187" width="10.158" height=".677" rx=".339" stroke="#1D293F" stroke-width=".677"/><rect x="2.919" y="20.187" width="10.158" height=".677" rx=".339" stroke="#1D293F" stroke-width=".677"/><rect x="37.23" y="20.187" width="10.158" height=".677" rx=".339" stroke="#1D293F" stroke-width=".677"/><rect x="20.075" y="44.115" width="10.158" height=".677" rx=".339" stroke="#1D293F" stroke-width=".677"/><rect x="2.919" y="44.115" width="10.158" height=".677" rx=".339" stroke="#1D293F" stroke-width=".677"/><rect x="37.23" y="44.115" width="10.158" height=".677" rx=".339" stroke="#1D293F" stroke-width=".677"/><mask id="a" fill="#fff"><rect x="21.542" y="21.88" width="7.223" height="21.219" rx=".903"/></mask><rect x="21.542" y="21.88" width="7.223" height="21.219" rx=".903" stroke="#1D293F" stroke-width="3.612" mask="url(#a)"/><mask id="b" fill="#fff"><rect x="4.386" y="21.88" width="7.223" height="21.219" rx=".903"/></mask><rect x="4.386" y="21.88" width="7.223" height="21.219" rx=".903" stroke="#1D293F" stroke-width="3.612" mask="url(#b)"/><mask id="c" fill="#fff"><rect x="38.698" y="21.88" width="7.223" height="21.219" rx=".903"/></mask><rect x="38.698" y="21.88" width="7.223" height="21.219" rx=".903" stroke="#1D293F" stroke-width="3.612" mask="url(#c)"/><mask id="d" fill="#fff"><rect x="2.58" y="16.914" width="10.835" height="6.772" rx=".903"/></mask><rect x="2.58" y="16.914" width="10.835" height="6.772" rx=".903" stroke="#721B2B" stroke-width="3.612" mask="url(#d)"/><mask id="e" fill="#fff"><rect x="19.736" y="16.914" width="10.835" height="6.772" rx=".903"/></mask><rect x="19.736" y="16.914" width="10.835" height="6.772" rx=".903" stroke="#721B2B" stroke-width="3.612" mask="url(#e)"/><mask id="f" fill="#fff"><rect x="36.892" y="16.914" width="10.835" height="6.772" rx=".903"/></mask><rect x="36.892" y="16.914" width="10.835" height="6.772" rx=".903" stroke="#721B2B" stroke-width="3.612" mask="url(#f)"/><mask id="g" fill="#fff"><rect x="2.58" y="41.294" width="10.835" height="6.321" rx=".903"/></mask><rect x="2.58" y="41.294" width="10.835" height="6.321" rx=".903" stroke="#721B2B" stroke-width="3.612" mask="url(#g)"/><mask id="h" fill="#fff"><rect x="19.736" y="41.294" width="10.835" height="6.321" rx=".903"/></mask><rect x="19.736" y="41.294" width="10.835" height="6.321" rx=".903" stroke="#721B2B" stroke-width="3.612" mask="url(#h)"/><mask id="i" fill="#fff"><rect x="36.892" y="41.294" width="10.835" height="6.321" rx=".903"/></mask><rect x="36.892" y="41.294" width="10.835" height="6.321" rx=".903" stroke="#721B2B" stroke-width="3.612" mask="url(#i)"/><mask id="j" fill="#fff"><rect x="1.226" y="12.625" width="47.856" height="6.095" rx=".903"/></mask><rect x="1.226" y="12.625" width="47.856" height="6.095" rx=".903" stroke="#1D293F" stroke-width="3.612" mask="url(#j)"/><path d="M49.194 13.754L25.576 1.224a.903.903 0 0 0-.845 0L1 13.753" stroke="#1D293F" stroke-width="1.806" stroke-linecap="round" stroke-linejoin="round"/><mask id="k" fill="#fff"><rect x="1.226" y="45.808" width="47.856" height="5.192" rx=".903"/></mask><rect x="1.226" y="45.808" width="47.856" height="5.192" rx=".903" stroke="#1D293F" stroke-width="3.612" mask="url(#k)"/></svg>