<svg width="52" height="47" fill="none" xmlns="http://www.w3.org/2000/svg"><path d="M27.924 39.944c.388-1.715-.11-4.136.962-6.73 1.06-2.569 5.474-4.824 7.212-7.213 1.593-2.188 1.678-4.565 3.846-5.77" stroke="#1D293F" stroke-width="1.75"/><path d="M35.415 10.937a17.255 17.255 0 0 0-12.299-5.129c-9.559 0-17.308 7.75-17.308 17.309 0 9.559 7.75 17.308 17.308 17.308 9.56 0 17.31-7.75 17.31-17.308a17.23 17.23 0 0 0-2.443-8.87" stroke="#1D293F" stroke-width="1.75"/><path d="M45.233 23.116c0 12.215-9.902 22.117-22.116 22.117C10.901 45.233 1 35.331 1 23.117 1 10.901 10.902 1 23.116 1c2.171 0 4.269.313 6.25.896" stroke="#1D293F" stroke-width="1.75" stroke-linecap="round" stroke-linejoin="round" stroke-dasharray="2.88 4.81"/><path d="M35.33 1.11a2.833 2.833 0 0 0-2.052.744 2.836 2.836 0 0 0-.9 1.96 2.72 2.72 0 0 0 .762 2.01l1.884 1.95.746.761-2.756 7.937a.939.939 0 0 0 .198.946l1.65 1.783a.939.939 0 0 0 1.474-.122l3.893-5.923 2.188 2.25-.235 2.121c-.03.271.06.542.244.742l1.39 1.5a.94.94 0 0 0 1.516-.194l1.596-2.976 3.09-1.362a.938.938 0 0 0 .31-1.497l-1.389-1.5a.939.939 0 0 0-.72-.301l-2.133.071-2.075-2.355 6.205-3.425a.939.939 0 0 0 .235-1.46l-1.65-1.783a.94.94 0 0 0-.926-.27l-8.13 2.122-2.498-2.817a2.716 2.716 0 0 0-1.916-.912zm.511 2.158l2.88 3.248a.939.939 0 0 0 .94.285l8.144-2.125.453.49-6.18 3.41a.94.94 0 0 0-.25 1.444l3.142 3.564a.94.94 0 0 0 .736.318l2.147-.072.203.22-2.182.96a.939.939 0 0 0-.449.416L44.3 17.527l-.203-.22.237-2.134a.94.94 0 0 0-.26-.758l-3.313-3.407a.94.94 0 0 0-1.458.138l-3.877 5.899-.452-.49 2.762-7.953a.939.939 0 0 0-.216-.966l-1.15-1.172-1.88-1.944a.852.852 0 0 1-.234-.633.944.944 0 0 1 .298-.653.944.944 0 0 1 .684-.247.853.853 0 0 1 .603.282z" fill="#721B2B"/><path d="M6.289 20.713l2.884 1.442c2.308 1.154 4.808.48 5.77 0 1.282-.641 3.462-2.596 1.923-5.289-1.538-2.692-1.442-4.327-.961-5.288l2.884-5.29" stroke="#1D293F" stroke-width="1.75"/><path d="M6.289 27.444c1.442-.802 4.712-1.635 6.25 1.442 1.539 3.077-.641 5.77-1.923 6.731" stroke="#721B2B" stroke-width="1.75"/></svg>