<svg width="50" height="50" fill="none" xmlns="http://www.w3.org/2000/svg"><path d="M33.829 29.754l9.709-17.05 4.183 2.416-10.004 16.89-3.888-2.256zm-2.471 5.68h0l2.377-5.56 3.923 2.286-3.716 4.89-2.584-1.616z" stroke="#1D293F" stroke-width="1.817"/><path d="M39.674 15.925l7.741 4.445a.908.908 0 0 1 .33 1.25l-3.713 6.289" stroke="#721B2B" stroke-width="1.817" stroke-linecap="round" stroke-linejoin="round"/><circle cx="46.538" cy="12.33" r="1.488" stroke="#1D293F" stroke-width="1.817"/><path d="M20.392 41.744l1.96-5.883c.182-.4 1.308-4.357 1.744-2.396.435 1.96 0 5.01.218 5.773.217.763.827 1.22 1.525 0 .363-.58 1.242-1.394 1.852 0 .762 1.744 1.852 1.852 3.486-.762" stroke="#1D293F" stroke-width="1.817"/><path d="M30.197 5.793H8.19v3.269h22.007" stroke="#721B2B" stroke-width="1.817" stroke-linecap="round" stroke-linejoin="round"/><path d="M10.587 12.33h16.341m-13.073 5.665H31.94" stroke="#1D293F" stroke-width="1.817" stroke-linecap="round" stroke-linejoin="round"/><path d="M6.447 23.006h16.56m3.05 0h5.883" stroke="#721B2B" stroke-width="1.817" stroke-linecap="round" stroke-linejoin="round"/><path d="M17.995 26.928h5.665m-17.213 0h8.28m22.006 11.657v7.425a2.271 2.271 0 0 1-2.271 2.27H3.27A2.271 2.271 0 0 1 1 46.01V3.27A2.271 2.271 0 0 1 3.271 1h31.19a2.271 2.271 0 0 1 2.272 2.271v14.778" stroke="#1D293F" stroke-width="1.817" stroke-linecap="round" stroke-linejoin="round"/><path d="M33.901 37.06c-.502.778-1.882 1.78-2.615 1.308-.733-.473-.502-2.055 0-2.834" stroke="#1D293F" stroke-width="1.817"/></svg>