<svg width="50" height="40" fill="none" xmlns="http://www.w3.org/2000/svg"><path d="M.43 2.568c.964.519 1.959.977 2.98 1.371L.323 15.451a.834.834 0 0 0 1.226.939l5.408-3.12 3.12 5.409a.835.835 0 0 0 1.529-.201l3.148-11.745c1.448.198 2.915.352 4.388.459v11.07c0 .46.374.834.835.834h10.01c.46 0 .834-.373.834-.834V7.189a69.39 69.39 0 0 0 5.207-.578l7.445 11.276a.834.834 0 0 0 1.53-.409l.802-13.249a28.436 28.436 0 0 0 3.747-1.668.834.834 0 1 0-.803-1.463 27.68 27.68 0 0 1-4.016 1.752c-1.195.417-2.476.79-3.826 1.123-.052.012-.099.027-.15.04-.077.018-.159.033-.235.051a55.658 55.658 0 0 1-4.212.827 67.704 67.704 0 0 1-6.373.7 78.466 78.466 0 0 1-9.904 0 68.58 68.58 0 0 1-5.768-.6 48.63 48.63 0 0 1-9.564-2.345 25.296 25.296 0 0 1-3.47-1.541.834.834 0 0 0-.8 1.463zM10.518 16.1l-2.532-4.387a.835.835 0 0 0-1.14-.305l-4.387 2.53 2.528-9.436a50.611 50.611 0 0 0 8.108 1.98L10.517 16.1zm18.636-3.902a1.668 1.668 0 0 1 0-2.888v2.888zm14.334 2.682L37.84 6.326c.25-.045.486-.094.73-.141.188-.037.377-.072.564-.11a56.57 56.57 0 0 0 1.994-.438c.056-.014.109-.029.167-.042a45.923 45.923 0 0 0 2.27-.62c.175-.053.361-.103.536-.158l-.613 10.063zM29.153 7.3v.236a3.32 3.32 0 0 0 0 6.436v3.456H20.81V7.3c1.34.072 2.727.117 4.17.117a77.66 77.66 0 0 0 4.172-.117zm19.595 13.826a25.306 25.306 0 0 1-3.467 1.542 48.58 48.58 0 0 1-9.56 2.343c-1.888.28-3.83.482-5.772.602a78.433 78.433 0 0 1-9.903 0 67.823 67.823 0 0 1-6.372-.701 56.501 56.501 0 0 1-2.278-.403c-.042-.008-.083-.018-.124-.027a45.207 45.207 0 0 1-6.02-1.611 27.785 27.785 0 0 1-4.016-1.752.835.835 0 0 0-.803 1.463A28.574 28.574 0 0 0 4.18 24.25l.802 13.25a.834.834 0 0 0 1.528.409l7.446-11.277c1.7.257 3.444.448 5.206.579v11.073c0 .46.374.834.834.834h10.011c.46 0 .834-.373.834-.834v-11.07a69.971 69.971 0 0 0 4.388-.458L38.378 38.5a.833.833 0 0 0 1.528.201l3.12-5.409 5.409 3.12a.834.834 0 0 0 1.223-.939L46.571 23.96a25.895 25.895 0 0 0 2.98-1.371.835.835 0 1 0-.802-1.463zM29.17 27.32v2.391l-6.918-2.321a77.723 77.723 0 0 0 6.917-.07zm-8.343 6.264V32.01l8.342 2.8v1.576l-8.342-2.8zm8.342-.536l-8.342-2.8v-1.576l8.342 2.8v1.576zM6.494 34.902l-.61-10.064c.174.054.354.103.53.156l.543.16c.56.16 1.131.314 1.718.458.061.015.12.033.182.048.645.155 1.31.3 1.986.436.19.038.384.074.578.11.24.048.477.097.721.141l-5.648 8.555zm14.334.445l6.264 2.102h-6.264v-2.102zm22.306-3.921a.834.834 0 0 0-1.138.305l-2.531 4.39-2.578-9.617a50.524 50.524 0 0 0 8.108-1.98l2.528 9.436-4.389-2.534z" fill="#1D293F"/><path d="M24.148 16.593a2.503 2.503 0 1 0 0-5.005 2.503 2.503 0 0 0 0 5.005zm0-3.336a.834.834 0 1 1 0 1.668.834.834 0 0 1 0-1.668zm-.835-3.337a.826.826 0 1 0-.592-.242c.16.152.372.239.592.242zM7.146 8.318a.861.861 0 0 0-.275.175.834.834 0 1 0 1.184 0 .834.834 0 0 0-.909-.175zm-2.778 1.844a.838.838 0 1 0 1.185 1.184.838.838 0 0 0-1.185-1.184zm2.853-2.987a.878.878 0 0 0 .242-.592.698.698 0 0 0-.067-.317.857.857 0 0 0-.175-.275.873.873 0 0 0-1.184 0 .771.771 0 0 0-.175.275.834.834 0 0 0 1.36.91zm2.152 3.821a.834.834 0 1 0 1.185 0 .877.877 0 0 0-1.185 0zm2.019-3.337a.847.847 0 0 0-.909-.175.952.952 0 0 0-.275.175.772.772 0 0 0-.175.275.83.83 0 0 0-.05.484.528.528 0 0 0 .05.15.627.627 0 0 0 .075.15l.1.126a.846.846 0 0 0 1.184 0l.1-.126a.642.642 0 0 0 .075-.15.53.53 0 0 0 .05-.15c.01-.055.016-.11.017-.167a.877.877 0 0 0-.242-.592z" fill="#721B2B"/></svg>