<svg width="50" height="50" fill="none" xmlns="http://www.w3.org/2000/svg"><path d="M15.09 14.232h-4.688a.977.977 0 0 0-.976.976v5.469c0 .54.437.977.976.977h4.688a.977.977 0 0 0 .976-.977v-5.469a.977.977 0 0 0-.976-.976zm-.977 5.468h-2.734v-3.515h2.734V19.7z" fill="#721B2B"/><path d="M15.09 25.17h-4.688a.977.977 0 0 0-.976.976v5.468c0 .54.437.977.976.977h4.688a.976.976 0 0 0 .976-.977v-5.468a.977.977 0 0 0-.976-.977zm-.977 5.468h-2.734v-3.516h2.734v3.516z" fill="#1D293F"/><path d="M15.09 36.107h-4.688a.977.977 0 0 0-.976.976v5.469c0 .54.437.977.976.977h4.688a.977.977 0 0 0 .976-.977v-5.469a.977.977 0 0 0-.976-.976zm-.977 5.468h-2.734V38.06h2.734v3.515zm26.463-5.468h-4.688a.977.977 0 0 0-.976.976v5.469c0 .54.437.977.976.977h4.688c.54 0 .976-.438.976-.977v-5.469a.977.977 0 0 0-.976-.976zm-.977 5.468h-2.734V38.06h2.734v3.515zM23.585 14.232h-4.688a.977.977 0 0 0-.976.976v5.469c0 .54.437.977.977.977h4.687c.54 0 .977-.438.977-.977v-5.469a.977.977 0 0 0-.977-.976zm-.977 5.468h-2.734v-3.515h2.735V19.7zm9.472-5.468h-4.687a.977.977 0 0 0-.977.976v5.469c0 .54.438.977.977.977h4.687c.54 0 .977-.438.977-.977v-5.469a.977.977 0 0 0-.977-.976zm-.976 5.468h-2.735v-3.515h2.735V19.7z" fill="#721B2B"/><path d="M23.585 25.17h-4.688a.977.977 0 0 0-.976.976v5.468c0 .54.437.977.977.977h4.687c.54 0 .977-.437.977-.977v-5.468a.977.977 0 0 0-.977-.977zm-.977 5.468h-2.734v-3.516h2.735v3.516zm9.472-5.468h-4.687a.977.977 0 0 0-.977.976v5.468c0 .54.438.977.977.977h4.687c.54 0 .977-.437.977-.977v-5.468a.977.977 0 0 0-.977-.977zm-.976 5.468h-2.735v-3.516h2.735v3.516z" fill="#1D293F"/><path d="M40.576 14.232h-4.688a.977.977 0 0 0-.976.976v5.469c0 .54.437.977.976.977h4.688c.54 0 .976-.438.976-.977v-5.469a.977.977 0 0 0-.976-.976zm-.977 5.468h-2.734v-3.515h2.734V19.7z" fill="#721B2B"/><path d="M40.576 25.17h-4.688a.977.977 0 0 0-.976.976v5.468c0 .54.437.977.976.977h4.688c.54 0 .976-.437.976-.977v-5.468a.977.977 0 0 0-.976-.977zm-.977 5.468h-2.734v-3.516h2.734v3.516z" fill="#1D293F"/><path d="M49.023 48.047H45.36V10.162a.977.977 0 0 0-.976-.976h-5.42V5.664a.977.977 0 0 0-.977-.976h-5.37V.977A.977.977 0 0 0 31.641 0H18.359a.977.977 0 0 0-.976.977v3.71h-5.37a.977.977 0 0 0-.976.977v3.522h-5.42a.977.977 0 0 0-.977.976v37.885H.977a.977.977 0 1 0 0 1.953h48.046a.977.977 0 1 0 0-1.953zM19.336 1.953h11.328v2.734H19.336V1.954zm9.766 46.094h-6.757l6.757-6.757v6.757zm0-9.513a.956.956 0 0 0-.064.058l-8.14 8.139v-4.139l6.264-6.264h1.94v2.206zm-8.204 1.296v-3.502H24.4l-3.502 3.502zm22.51 8.217H31.054V36.328h.341a.977.977 0 0 0 0-1.953H18.604a.977.977 0 0 0 0 1.953h.342v11.719H6.593V11.139h10.84a.977.977 0 1 0 0-1.953H12.99V6.64h24.02v2.545H25.15a.977.977 0 0 0 0 1.953h18.258v36.908z" fill="#1D293F"/><path d="M21.932 9.472a.984.984 0 0 0-.69-.286.984.984 0 0 0-.691.286.984.984 0 0 0-.286.69.98.98 0 0 0 1.667.69.984.984 0 0 0 .286-.69.984.984 0 0 0-.286-.69z" fill="#1D293F"/></svg>