<svg width="18" height="18" fill="none" xmlns="http://www.w3.org/2000/svg"><path fill-rule="evenodd" clip-rule="evenodd" d="M9 0C6.556 0 6.25.01 5.29.054 4.332.098 3.677.25 3.104.472c-.6.226-1.144.58-1.594 1.038-.457.45-.811.994-1.038 1.594C.25 3.677.098 4.332.054 5.29.011 6.25 0 6.555 0 9c0 2.445.01 2.75.054 3.71.044.958.196 1.613.418 2.185.226.601.58 1.145 1.038 1.595.5.5 1.003.808 1.594 1.038.573.222 1.228.375 2.186.418.96.043 1.266.054 3.71.054s2.75-.01 3.71-.054c.958-.044 1.613-.196 2.185-.419a4.413 4.413 0 0 0 1.595-1.038c.5-.5.808-1.002 1.038-1.594.222-.572.375-1.226.418-2.184.043-.96.054-1.267.054-3.711s-.01-2.75-.054-3.71c-.044-.958-.196-1.613-.419-2.186A4.412 4.412 0 0 0 16.49 1.51 4.415 4.415 0 0 0 14.896.472C14.324.25 13.67.098 12.71.054 11.75.011 11.445 0 9 0zm0 1.621c2.403 0 2.688.01 3.637.053.877.04 1.354.187 1.671.31.42.163.72.358 1.035.673.315.315.51.615.673 1.035.124.317.27.793.31 1.671.043.949.052 1.234.052 3.637s-.009 2.688-.052 3.637c-.04.877-.186 1.354-.31 1.671a2.788 2.788 0 0 1-.673 1.035c-.315.315-.615.51-1.035.673-.317.124-.793.27-1.671.31-.949.043-1.234.052-3.637.052-2.404 0-2.688-.009-3.637-.052-.878-.04-1.354-.186-1.671-.31a2.788 2.788 0 0 1-1.035-.673 2.789 2.789 0 0 1-.673-1.035c-.123-.317-.27-.793-.31-1.671-.043-.949-.052-1.234-.052-3.637s.009-2.688.052-3.637c.04-.878.187-1.354.31-1.671.163-.42.358-.72.673-1.035.315-.315.615-.51 1.035-.673.317-.123.793-.27 1.671-.31.949-.043 1.234-.052 3.637-.052z" fill="#fff"/><path fill-rule="evenodd" clip-rule="evenodd" d="M8.801 12.288c-.409 0-.814-.082-1.192-.24a3.112 3.112 0 0 1-1.012-.688 3.17 3.17 0 0 1-.675-1.027 3.212 3.212 0 0 1 .675-3.452c.29-.294.634-.527 1.012-.686a3.074 3.074 0 0 1 3.396.686c.585.594.913 1.4.913 2.24 0 .84-.328 1.646-.912 2.24a3.092 3.092 0 0 1-2.205.927zm0-8.046A4.763 4.763 0 0 0 5.406 5.67 4.92 4.92 0 0 0 4 9.121a4.92 4.92 0 0 0 1.406 3.45A4.763 4.763 0 0 0 8.801 14a4.763 4.763 0 0 0 3.396-1.429 4.92 4.92 0 0 0 1.406-3.45 4.92 4.92 0 0 0-1.406-3.45A4.763 4.763 0 0 0 8.8 4.241zM15 4.153c0 .306-.12.6-.332.816a1.126 1.126 0 0 1-1.605 0 1.163 1.163 0 0 1 0-1.631 1.126 1.126 0 0 1 1.605 0c.212.216.332.51.332.815z" fill="#fff"/></svg>