<svg width="13" height="14" fill="none" xmlns="http://www.w3.org/2000/svg"><g clip-path="url(#clip0)"><path d="M10.214 4.833h-.619V3.595A3.065 3.065 0 0 0 6.5.5a3.065 3.065 0 0 0-3.095 3.095v1.238h-.62c-.68 0-1.237.557-1.237 1.238v6.19c0 .682.557 1.239 1.238 1.239h7.428c.681 0 1.238-.557 1.238-1.238v-6.19c0-.682-.557-1.239-1.238-1.239zM6.5 1.676a1.93 1.93 0 0 1 1.92 1.92v1.237H4.642V3.595H4.58a1.93 1.93 0 0 1 1.919-1.919zm3.714 10.586H2.786v-6.19h7.428v6.19zM6.5 10.405c.681 0 1.238-.557 1.238-1.238 0-.681-.557-1.238-1.238-1.238-.68 0-1.238.557-1.238 1.238 0 .68.557 1.238 1.238 1.238z" fill="#1D293F"/></g><defs><clipPath id="clip0"><path fill="#fff" transform="translate(0 .5)" d="M0 0h13v13H0z"/></clipPath></defs></svg>