<svg width="51" height="50" fill="none" xmlns="http://www.w3.org/2000/svg"><path d="M23.653 37.05a.85.85 0 0 0-1.186.182l-.105.142a.849.849 0 0 0 1.367 1.007l.106-.145a.849.849 0 0 0-.182-1.186z" fill="#1D293F"/><path d="M23.875 45.125l-2.183-3.97 2.038-2.776a.849.849 0 1 0-1.368-1.004l-2.36 3.212a.849.849 0 0 0-.059.912l2.444 4.444a.849.849 0 1 0 1.488-.818zm6.326-4.537l-2.35-3.2a.848.848 0 1 0-1.367 1.005l2.028 2.763-2.169 3.942a.851.851 0 0 0 .744 1.258.85.85 0 0 0 .744-.44l2.43-4.417a.849.849 0 0 0-.06-.911zm1.345-13.339a.849.849 0 0 0-.876.052c-.505.348-.974.716-1.393 1.095-2.284 2.065-4.454 1.786-4.54 1.774a.828.828 0 0 0-.154-.01c-.903.023-2.53-.802-4.252-2.155a13.858 13.858 0 0 0-.803-.585.848.848 0 0 0-1.324.703v2.912a.85.85 0 0 0 .392.715l6.018 4.022c.002 0 .002.001.003.002l.016.01a.85.85 0 0 0 .956-.012l.01-.006 6.005-4.012a.849.849 0 0 0 .397-.718V28a.849.849 0 0 0-.455-.751zm-1.244 3.332l-5.2 3.475-5.2-3.475v-.772c1.266.92 3.129 2.049 4.647 2.049h.01c.51.056 3.11.21 5.744-2.102v.825z" fill="#1D293F"/><path d="M25.94 34.937a.849.849 0 0 0-1.522-.363l-1.951 2.658a.849.849 0 1 0 1.368 1.004l1.941-2.643a.848.848 0 0 0 .163-.656zM38.033 7.573c-.016-.133-.414-3.003-3.115-4.135.078-.504.07-1.151-.25-1.782C34.238.81 33.39.257 32.145.016A.846.846 0 0 0 31.984 0H20.59c-4.626 0-8.39 3.764-8.39 8.39v4.47c0 1.165.397 2.3 1.118 3.198.357.445.797 1.222.864 2.397a.849.849 0 0 0 1.696-.048v-5.828c.576-2.384 2.543-2.848 2.882-2.91h3.685c.433 0 .86-.067 1.267-.197a63.23 63.23 0 0 0 2.622-.946 2.46 2.46 0 0 1 1.687-.021l3.946 1.385a3.61 3.61 0 0 1 2.368 2.73v6.996a.848.848 0 0 0 1.688.125c.003-.022.342-2.211 1.435-3.964.38-.61.581-1.306.581-2.012V7.68a.854.854 0 0 0-.007-.107zm-1.69 6.191c0 .38-.107.756-.31 1.09v-2.291a.851.851 0 0 0-.005-.092c-.013-.123-.364-3.032-3.48-4.177a5.208 5.208 0 0 0-.012-.004l-3.951-1.387a4.159 4.159 0 0 0-2.853.036c-1.133.43-2.011.747-2.538.916a2.45 2.45 0 0 1-.748.116h-3.754a.863.863 0 0 0-.109.007 5.4 5.4 0 0 0-4.381 4.319.85.85 0 0 0-.02.184v1.747a3.45 3.45 0 0 1-.283-1.368V8.39a6.7 6.7 0 0 1 6.692-6.692h11.307c.468.1 1.037.304 1.253.72.264.51-.037 1.212-.037 1.212a.849.849 0 0 0 .57 1.186c2.16.52 2.601 2.593 2.659 2.928v6.02z" fill="#1D293F"/><path d="M36.028 12.47c-.013-.122-.364-3.031-3.48-4.176a5.208 5.208 0 0 0-.012-.004l-3.951-1.387a4.163 4.163 0 0 0-2.853.036c-1.133.43-2.011.747-2.538.916a2.45 2.45 0 0 1-.748.116h-3.754a.862.862 0 0 0-.109.007 5.4 5.4 0 0 0-4.381 4.318.845.845 0 0 0-.02.185v7.316c.005.253.184 6.24 4.32 8.977l.022.015.054.038c.236.159.473.332.704.513 1.205.947 3.476 2.518 5.267 2.518h.01c.097.01.27.025.506.025 1.015 0 3.181-.267 5.35-2.228.365-.329.774-.65 1.218-.956l.063-.045.063-.043c1.38-.927 3.77-3.318 4.27-8.92a.832.832 0 0 0 .004-.076v-7.052a.909.909 0 0 0-.005-.092zm-1.693 7.107c-.462 5.056-2.616 7.016-3.523 7.624a6.061 6.061 0 0 0-.095.067l-.047.033c-.505.348-.974.716-1.393 1.095-2.276 2.057-4.439 1.788-4.545 1.773a.858.858 0 0 0-.15-.01c-.902.024-2.53-.801-4.252-2.154a13.812 13.812 0 0 0-.802-.585l-.021-.015a2.438 2.438 0 0 0-.065-.045c-3.337-2.209-3.556-7.378-3.563-7.594v-7.188c.578-2.392 2.558-2.85 2.88-2.91h3.687c.433 0 .86-.066 1.267-.197a63.23 63.23 0 0 0 2.622-.945 2.46 2.46 0 0 1 1.687-.021l3.946 1.384a3.611 3.611 0 0 1 2.368 2.732v6.956zm-8.474 15.12a.85.85 0 0 0-1.443-.122l-2.034 2.769a.849.849 0 0 0 1.368 1.006l2.033-2.76a.878.878 0 0 0 .166-.513.851.851 0 0 0-.09-.38zm.055 13.667a.849.849 0 0 0-1.187-.04l-.194.178a.849.849 0 0 0-.168 1.04l.006.01a.849.849 0 0 0 1.341.187l.188-.188a.849.849 0 0 0 .014-1.187z" fill="#1D293F"/><path d="M25.669 48.502l-.195-.178a.849.849 0 0 0-1.172 1.227l.188.188a.849.849 0 0 0 1.344-.192l.006-.01a.85.85 0 0 0-.171-1.035z" fill="#1D293F"/><path d="M25.683 48.515h-.001a.848.848 0 0 0-1.159-.002l-.002.002a.849.849 0 0 0-.027 1.23l.01.008a.846.846 0 0 0 1.198-.002l.009-.008a.849.849 0 0 0-.028-1.228zm-.306-14.26a.852.852 0 0 0-.951.32.847.847 0 0 0 .693 1.338.85.85 0 0 0 .85-.849v-.002c0-.37-.24-.694-.592-.807z" fill="#1D293F"/><path d="M25.792 34.567l-.008-.01a.849.849 0 0 0-1.53.505v.015a.848.848 0 0 0 .85.845.849.849 0 0 0 .688-1.354z" fill="#1D293F"/><path d="M27.991 38.096a.849.849 0 0 0-.14-.708l-2.065-2.813a.846.846 0 0 0-1.395.046l-2.027 2.751a.85.85 0 0 0-.014.99l.863 1.24-.92 5.799a.85.85 0 0 0 .095.542l1.97 3.583a.849.849 0 0 0 1.488 0l1.985-3.61a.859.859 0 0 0 .095-.543l-.916-5.77.854-1.227a.857.857 0 0 0 .127-.28zm-2.889 9.26l-1.087-1.976.928-5.85a.849.849 0 0 0-.142-.617l-.711-1.022 1.015-1.376 1.02 1.389-.703 1.009a.85.85 0 0 0-.142.618l.923 5.822-1.101 2.003z" fill="#1D293F"/><path d="M25.7 48.55l-.003-.004-.007-.007-.188-.188a.737.737 0 0 0-.027-.026l-9.11-8.334.89-1.7a.849.849 0 0 0-.738-1.242l-2.171-.033 2.212-4.435a.85.85 0 0 0-1.049-1.178L4.916 35.236a5.853 5.853 0 0 0-3.78 4.543L.043 46.391c-.15.901.104 1.817.694 2.513A3.097 3.097 0 0 0 3.102 50h22a.849.849 0 0 0 .598-1.45zm-22.598-.248a1.402 1.402 0 0 1-1.385-1.634l1.095-6.612a4.154 4.154 0 0 1 2.682-3.224l8.598-3.11-1.867 3.743a.849.849 0 0 0 .747 1.227l2.14.033-.554 1.058a.849.849 0 0 0 .18 1.02l8.198 7.5H3.102z" fill="#721B2B"/><path d="M25.938 34.93a.85.85 0 0 0-.363-.558l-6.05-4.043a.85.85 0 0 0-.759-.093l-3.254 1.166a.849.849 0 0 0-.457 1.209l4.888 8.888a.849.849 0 0 0 1.428.093l2.36-3.213a.152.152 0 0 0 .005-.007l2.05-2.793a.85.85 0 0 0 .152-.649zm-3.576 2.444l-.006.009-1.566 2.133-3.769-6.851 1.916-.687 4.956 3.312-1.531 2.084z" fill="#1D293F"/><path d="M50.162 46.391l-1.095-6.612a5.853 5.853 0 0 0-3.78-4.543l-10.593-3.833a.849.849 0 0 0-1.048 1.178l2.212 4.435-2.17.033a.849.849 0 0 0-.74 1.243l.89 1.7-9.109 8.333a.964.964 0 0 0-.027.026l-.188.188a.849.849 0 0 0-.145 1.007l.007.013a.85.85 0 0 0 .745.44H47.1a3.099 3.099 0 0 0 3.061-3.608zm-1.989 1.415a1.402 1.402 0 0 1-1.071.496H27.269l8.198-7.5a.848.848 0 0 0 .18-1.02l-.555-1.057 2.14-.033a.849.849 0 0 0 .747-1.227l-1.867-3.744 8.598 3.111a4.154 4.154 0 0 1 2.682 3.224l1.095 6.612c.068.408-.047.823-.314 1.138z" fill="#721B2B"/><path d="M35.2 31.9a.848.848 0 0 0-.508-.498l-3.254-1.166a.848.848 0 0 0-.759.093l-6.03 4.03c-.002 0-.003.002-.005.003l.474.704-.485-.697a.849.849 0 0 0-.215 1.21l4.415 6.013a.849.849 0 0 0 1.428-.093l4.888-8.889a.848.848 0 0 0 .05-.71zm-5.786 7.616l-3.103-4.227 4.956-3.311 1.915.686-3.768 6.852z" fill="#1D293F"/></svg>