<svg width="33" height="22" fill="none" xmlns="http://www.w3.org/2000/svg"><path d="M20.814 11.065c0 5.6-4.537 10.14-10.136 10.14-5.6 0-10.136-4.54-10.136-10.14 0-5.6 4.538-10.14 10.136-10.14 5.598 0 10.136 4.54 10.136 10.14z" fill="#BDBDBD"/><path d="M22.851.924a10.08 10.08 0 0 0-6.057 2.022l.008.001c.333.322.7.548.983.918l-2.11.033c-.33.334-.631.697-.915 1.074h3.72c.282.34.544.635.78 1.01h-5.174c-.19.326-.365.662-.518 1.01h6.282c.164.348.311.611.436.98h-7.09a9.43 9.43 0 0 0-.282 1.072h7.67c.074.35.132.675.172 1.006H12.76c-.033.333-.05.672-.05 1.014h8.102c0 .359-.025.691-.062 1.014h-7.99c.035.344.086.681.153 1.014h7.657c-.08.328-.17.659-.285 1.002h-7.114c.108.346.239.683.381 1.011h6.297c-.174.37-.372.665-.59 1.01h-5.192c.205.355.43.694.676 1.018l3.735.056c-.318.382-.727.612-1.099.947.02.016-.595-.002-1.807-.021a10.102 10.102 0 0 0 7.278 3.088c5.6 0 10.14-4.54 10.14-10.14 0-5.6-4.539-10.139-10.14-10.139z" fill="#D4D4D4"/></svg>