<svg width="58" height="16" fill="none" xmlns="http://www.w3.org/2000/svg"><g clip-path="url(#clip0)" fill-rule="evenodd" clip-rule="evenodd"><path d="M51.593 0H40.774c.582 3.543 4.072 6.857 7.91 6.857h8.609c.116-.343.116-.8.116-1.143 0-3.2-2.56-5.714-5.816-5.714z" fill="#D4D4D4"/><path d="M41.705 7.429V16h5.235v-4.57h4.653c2.559 0 4.769-1.715 5.467-4H41.705zM23.093 0v16h4.653s1.163 0 1.745-1.143l4.071-8h.582V16h5.234V0h-4.653s-1.163.114-1.745 1.143l-4.071 8h-.582V0h-5.234zM.99 16V0h5.235s1.513 0 2.327 2.286c2.094 6.057 2.326 6.857 2.326 6.857s.466-1.486 2.327-6.857C14.019 0 15.53 0 15.53 0h5.235v16H15.53V7.429h-.581L12.042 16H9.715L6.807 7.429h-.582V16H.991z" fill="#BDBDBD"/></g><defs><clipPath id="clip0"><path fill="#fff" transform="translate(.99)" d="M0 0h57v16H0z"/></clipPath></defs></svg>