<svg width="12" height="19" fill="none" xmlns="http://www.w3.org/2000/svg"><path d="M5.98.864a4.664 4.664 0 1 0 0 9.328 4.664 4.664 0 0 0 0-9.328zm0 6.592a1.928 1.928 0 1 1 0-3.856 1.928 1.928 0 0 1 0 3.856zm1.647 6.447c1.867-.38 2.986-1.264 3.045-1.312a1.268 1.268 0 0 0-1.587-1.978c-.011.01-1.204.925-3.168.926-1.963-.001-3.182-.917-3.194-.926a1.268 1.268 0 0 0-1.586 1.979c.06.048 1.225.955 3.144 1.326l-2.675 2.796a1.268 1.268 0 1 0 1.826 1.76l2.485-2.647 2.736 2.664a1.268 1.268 0 1 0 1.792-1.794l-2.818-2.793z" fill="#fff"/></svg>