<svg width="51" height="45" fill="none" xmlns="http://www.w3.org/2000/svg"><path d="M47.463 0H3.05A3.053 3.053 0 0 0 0 3.05v30.664a3.053 3.053 0 0 0 3.05 3.05h15.218v2.218a3.693 3.693 0 0 1-3.689 3.69h-3.354a1.164 1.164 0 0 0 0 2.328h28.062a1.164 1.164 0 1 0 0-2.329h-3.354a3.693 3.693 0 0 1-3.689-3.689v-2.218h15.219a3.053 3.053 0 0 0 3.05-3.05V3.05A3.053 3.053 0 0 0 47.462 0zM19.33 42.671a5.986 5.986 0 0 0 1.268-3.689v-2.218h9.318v2.218c0 1.39.475 2.67 1.269 3.69H19.329zm28.855-8.957a.72.72 0 0 1-.72.72H3.048a.721.721 0 0 1-.72-.72v-6.12h45.855v6.12zm0-8.449H2.329V3.05a.72.72 0 0 1 .72-.72h44.414a.72.72 0 0 1 .72.72v22.216z" fill="#1D293F"/><path d="M25.257 32.272a1.257 1.257 0 1 0 0-2.514 1.257 1.257 0 0 0 0 2.514zm1.996-24.25a1.165 1.165 0 0 0-1.647 0l-8.23 8.23a1.165 1.165 0 0 0 1.647 1.647l8.23-8.23a1.165 1.165 0 0 0 0-1.647zm4.877 4.769a1.165 1.165 0 0 0-1.646 0l-3.279 3.279a1.164 1.164 0 0 0 1.647 1.646l3.278-3.278a1.165 1.165 0 0 0 0-1.647z" fill="#721B2B"/></svg>