<svg width="50" height="51" fill="none" xmlns="http://www.w3.org/2000/svg"><path d="M48.415 48.489a2.513 2.513 0 0 1-3.142.003l-.014-.012a4.458 4.458 0 0 0-5.573.005 2.512 2.512 0 0 1-3.145 0c-.002 0-.004-.002-.005-.003a4.458 4.458 0 0 0-5.57 0l-.016.012a2.514 2.514 0 0 1-3.139 0l-.018-.014a4.459 4.459 0 0 0-5.576.008 2.514 2.514 0 0 1-3.142.003l-.018-.014a4.46 4.46 0 0 0-5.568.001l-.017.013a2.514 2.514 0 0 1-3.146-.005 4.457 4.457 0 0 0-5.572-.007l-.019.015a2.514 2.514 0 0 1-3.139 0 .977.977 0 0 0-1.214 1.53A4.47 4.47 0 0 0 3.167 51c.981 0 1.962-.325 2.78-.974l.02-.015a2.514 2.514 0 0 1 3.145.005 4.458 4.458 0 0 0 5.575.005l.016-.014a2.514 2.514 0 0 1 3.14 0l.017.014a4.46 4.46 0 0 0 5.577-.008 2.513 2.513 0 0 1 3.142-.003l.018.015a4.46 4.46 0 0 0 5.567-.001l.017-.014a2.513 2.513 0 0 1 3.142.003l.005.004a4.456 4.456 0 0 0 5.575-.004 2.513 2.513 0 0 1 3.142-.003l.014.012a4.457 4.457 0 0 0 5.573-.006.977.977 0 0 0-1.217-1.527z" fill="#721B2B"/><path d="M.724 13.585l6.97 1.868c-.86.4-1.659.95-2.35 1.643a8.319 8.319 0 0 0-1.922 8.714.977.977 0 0 0 1.607.355l3.23-3.23a8.785 8.785 0 0 0 5.07 8.172.974.974 0 0 0 .935-.063.977.977 0 0 0 .451-.823V20.32a25.555 25.555 0 0 1 5.12 14.751c-1.279.39-2.512.923-3.673 1.595a17.786 17.786 0 0 0-5.886 5.533 4.455 4.455 0 0 0-5.522.031l-.019.015a2.514 2.514 0 0 1-3.139 0 .977.977 0 0 0-1.214 1.53 4.47 4.47 0 0 0 2.785.976c.981 0 1.962-.325 2.78-.974l.02-.015a2.515 2.515 0 0 1 3.145.005 4.458 4.458 0 0 0 5.575.005l.016-.014a2.514 2.514 0 0 1 3.14 0l.017.014a4.459 4.459 0 0 0 5.577-.008 2.513 2.513 0 0 1 3.142-.003l.018.015a4.46 4.46 0 0 0 5.567-.001l.017-.014a2.513 2.513 0 0 1 3.142.003l.005.004a4.456 4.456 0 0 0 5.575-.004 2.513 2.513 0 0 1 3.142-.003l.014.011a4.457 4.457 0 0 0 5.573-.005.977.977 0 1 0-1.217-1.527 2.513 2.513 0 0 1-3.142.003l-.014-.012a4.457 4.457 0 0 0-5.531-.027 17.786 17.786 0 0 0-5.885-5.535 17.543 17.543 0 0 0-3.081-1.404v-1.708c0-1.438.098-2.89.292-4.314a.976.976 0 1 0-1.935-.264 34.03 34.03 0 0 0-.31 4.578v1.16a17.719 17.719 0 0 0-2.832-.387v-1.15a32.009 32.009 0 0 1 7.357-20.397h1.95v.843a33.948 33.948 0 0 0-3.766 6.647.977.977 0 0 0 1.797.765 31.985 31.985 0 0 1 1.97-3.87v8.763a.976.976 0 0 0 1.387.886 8.785 8.785 0 0 0 5.068-8.173l3.23 3.23a.977.977 0 0 0 1.608-.354 8.319 8.319 0 0 0-1.921-8.714 8.242 8.242 0 0 0-2.351-1.643l6.97-1.867a.976.976 0 0 0 .497-1.57 8.239 8.239 0 0 0-8.426-2.667 8.202 8.202 0 0 0-3.872 2.331 8.28 8.28 0 0 0-2.202-3.967A8.32 8.32 0 0 0 26.56 1.5a.977.977 0 0 0-.355 1.608l3.265 3.264a8.704 8.704 0 0 0-7.698 4.356 8.583 8.583 0 0 0-1.063-.067c-.06 0-.119.002-.178.003L23.795 7.4a.976.976 0 0 0-.354-1.608 8.319 8.319 0 0 0-8.715 1.922 8.28 8.28 0 0 0-2.202 3.967 8.204 8.204 0 0 0-3.87-2.331 8.238 8.238 0 0 0-8.427 2.667.976.976 0 0 0 .497 1.57zm4.173 9.95a6.36 6.36 0 0 1 1.827-5.058 6.355 6.355 0 0 1 5.059-1.828l-6.886 6.886zm5.312-.37c0-.967.2-1.898.59-2.77l1.963-1.963v10.042a6.828 6.828 0 0 1-2.553-5.31zm5.153-5.173l-.646-.77v-.15H17.4a28.377 28.377 0 0 1 6.605 17.258c-.751.042-1.497.133-2.233.269a27.508 27.508 0 0 0-6.41-16.607zM37.74 42.759a2.525 2.525 0 0 1-1.199-.524l-.004-.003a4.458 4.458 0 0 0-5.57-.001l-.017.013a2.514 2.514 0 0 1-3.138 0l-.018-.014a4.459 4.459 0 0 0-5.577.008 2.513 2.513 0 0 1-3.142.003l-.017-.014a4.46 4.46 0 0 0-5.568 0l-.017.014a2.522 2.522 0 0 1-1.215.524c2.954-4.1 7.624-6.512 12.743-6.512 5.118 0 9.786 2.41 12.74 6.506zM24.683 26.535a30.33 30.33 0 0 0-4.79-9.462h7.796c.168 0 .33-.044.473-.122a34.017 34.017 0 0 0-3.48 9.584zm12.555-2.352V13.565a6.828 6.828 0 0 1 2.553 5.309 6.828 6.828 0 0 1-2.553 5.309zm7.865-4.94l-4.293-4.292a8.821 8.821 0 0 0-2.007-2.618 6.357 6.357 0 0 1 4.473 1.853 6.36 6.36 0 0 1 1.827 5.058zm-3.25-12.299a6.21 6.21 0 0 1 1.607-.211 6.3 6.3 0 0 1 3.601 1.133l-9.26 2.48a6.28 6.28 0 0 1 4.051-3.402zm-7.96-2.141A6.36 6.36 0 0 1 35.72 9.86l-6.886-6.886a6.36 6.36 0 0 1 5.058 1.828zm-4.601 3.52a6.65 6.65 0 0 1 2.692.564l1.942 1.941H24.06a6.745 6.745 0 0 1 5.23-2.505zm1.554 4.459a33.833 33.833 0 0 0-2.182 3.28.973.973 0 0 0-.089-.377 8.645 8.645 0 0 0-2.193-2.903h4.464zm-4.907 2.338H15.477a6.744 6.744 0 0 1 5.231-2.506c2.052 0 3.972.948 5.231 2.505zm-9.831-6.027a6.36 6.36 0 0 1 5.058-1.827l-4.298 4.298a8.735 8.735 0 0 0-2.613 1.983 6.355 6.355 0 0 1 1.853-4.454zm-7.96 2.142a6.28 6.28 0 0 1 4.05 3.403l-9.26-2.481a6.28 6.28 0 0 1 5.21-.922z" fill="#1D293F"/><path d="M30.969 23.828a.984.984 0 0 0-.69.286.984.984 0 0 0-.287.69.98.98 0 0 0 1.667.69.978.978 0 0 0-.69-1.666z" fill="#721B2B"/></svg>