<svg width="50" height="50" fill="none" xmlns="http://www.w3.org/2000/svg"><path d="M23.556 25.063a.976.976 0 1 0 1.38 1.38.976.976 0 0 0-1.38-1.38z" fill="#721B2B"/><path d="M39.085 2.857c-1.676 1.297-2.133 1.966-8.076 7.848l-3.563-.58L29.08 8.49a2.927 2.927 0 0 0 0-4.144 2.928 2.928 0 0 0-4.144 0L20.32 8.965 4.17 6.335a3.295 3.295 0 0 0-2.461 5.92l16.094 11.657-3.013 3.013c-1.033 1.033-2.12 2.453-3.237 4.226l-7.505-2.207a3.157 3.157 0 0 0-2.687 5.624l6.153 4.26A77.882 77.882 0 0 0 5.76 42.98a.977.977 0 0 0 1.26 1.26 79.58 79.58 0 0 0 4.152-1.753l4.26 6.154a3.157 3.157 0 0 0 5.623-2.688l-2.206-7.505c1.774-1.118 3.194-2.205 4.226-3.236l3.014-3.014 11.655 16.095a3.295 3.295 0 0 0 5.92-2.462l-2.629-16.15 4.618-4.618a2.929 2.929 0 0 0 0-4.144 2.927 2.927 0 0 0-4.143 0l-1.635 1.635-.58-3.563c5.888-5.95 6.546-6.395 7.844-8.071l.005-.006c3.012-3.904 3.717-7.847 1.753-9.812C46.933-.86 42.99-.157 39.085 2.857zm-12.767 2.87A.976.976 0 1 1 27.7 7.109l-2.63 2.63-2.375-.387 3.623-3.623zM2.852 10.675a1.341 1.341 0 0 1 1.003-2.411l25.452 4.144-10.106 10.106-16.349-11.84zm-.547 20.448a1.203 1.203 0 0 1 1.19-.304l7.02 2.065a66.436 66.436 0 0 0-2.164 4.15l-5.88-4.07a1.204 1.204 0 0 1-.166-1.84zm16.573 16.573a1.204 1.204 0 0 1-1.84-.166l-4.07-5.88a66.98 66.98 0 0 0 4.15-2.165l2.064 7.02c.124.423.008.88-.303 1.19zM42.892 22.3a.975.975 0 1 1 1.38 1.382l-3.623 3.623-.387-2.375 2.63-2.63zm-1.155 23.844a1.342 1.342 0 0 1-2.41 1.004l-11.84-16.349 10.106-10.106 4.144 25.45zM21.694 33.83c-1.075 1.075-2.647 2.236-4.674 3.45-2.636 1.578-5.754 3.073-8.567 4.267 1.227-2.889 2.75-6.058 4.362-8.723 1.18-1.951 2.308-3.471 3.355-4.518C40.025 4.508 38.612 5.736 40.06 4.578c1.605-.103 3.019.374 4.003 1.358.984.985 1.462 2.399 1.359 4.004-1.16 1.452.053.052-23.728 23.89zm25.4-26.456a6.514 6.514 0 0 0-1.65-2.818 6.519 6.519 0 0 0-2.818-1.65c1.413-.716 3.794-1.519 4.89-.423.866.867.651 2.774-.423 4.891z" fill="#1D293F"/><path d="M29.08 19.538L26.32 22.3a.977.977 0 1 0 1.38 1.382l2.762-2.762a.976.976 0 1 0-1.381-1.38zm5.525-5.525l-2.763 2.763a.977.977 0 0 0 1.382 1.381l2.762-2.762a.977.977 0 0 0-1.38-1.382z" fill="#721B2B"/></svg>