<svg width="62" height="52" fill="none" xmlns="http://www.w3.org/2000/svg"><path d="M19.713 5.378c2.32-1.584 8.682-3.8 15.575 0" stroke="#1D293F" stroke-width="1.767"/><circle cx="8.224" cy="22.61" r=".994" fill="#721B2B"/><path d="M25.567 37.081v13.256m9.611-44.849l-9.61 23.087v4.088" stroke="#1D293F" stroke-width="1.767" stroke-linecap="round" stroke-linejoin="round"/><path d="M15.184 36.86h14.14m-14.251-3.866h24.965M33.3 36.86h6.849" stroke="#721B2B" stroke-width="1.767" stroke-linecap="round" stroke-linejoin="round"/><path d="M15.957 16.756L14.079 51h26.953l-1.877-34.244" stroke="#1D293F" stroke-width="1.767" stroke-linecap="round" stroke-linejoin="round"/><mask id="a" fill="#fff"><rect x="28.66" y="32" width="5.523" height="13.477" rx=".636"/></mask><rect x="28.66" y="32" width="5.523" height="13.477" rx=".636" stroke="#721B2B" stroke-width="3.535" mask="url(#a)"/><path d="M19.823 5.267l7.733 18.117m12.593 7.732h6.849m-39.548 0h6.85M8.776 18.965l1.327-9.832 9.831-3.867M7.672 26.477L6.346 36.75h8.506M35.067 5.267L44.9 9.133l3.866 27.616H40.37" stroke="#1D293F" stroke-width="1.767" stroke-linecap="round" stroke-linejoin="round"/></svg>