<svg width="39" height="50" fill="none" xmlns="http://www.w3.org/2000/svg"><path d="M4.452 19.934l6.348-4.009h7.573l7.461-5.123 8.352-1.67" stroke="#1D293F" stroke-width="1.782" stroke-linecap="round" stroke-linejoin="round"/><path d="M12.693 4.232H1.891a.89.89 0 0 0-.891.89V48.11a.89.89 0 0 0 .89.891h34.746a.89.89 0 0 0 .891-.89V5.122a.89.89 0 0 0-.89-.891H25.944" stroke="#1D293F" stroke-width="1.782"/><mask id="a" fill="#fff"><rect x="11.691" width="15.146" height="8.464" rx=".891"/></mask><rect x="11.691" width="15.146" height="8.464" rx=".891" stroke="#1D293F" stroke-width="3.564" mask="url(#a)"/><mask id="b" fill="#fff"><rect x="28.395" y="14.032" width="6.905" height="22.495" rx=".891"/></mask><rect x="28.395" y="14.032" width="6.905" height="22.495" rx=".891" stroke="#1D293F" stroke-width="3.564" mask="url(#b)"/><rect x="3.227" y="38.086" width="18.486" height="1.782" rx=".891" fill="#1D293F"/><rect x="3.45" y="41.427" width="31.627" height="1.782" rx=".891" fill="#1D293F"/><rect x="18.373" y="44.768" width="16.704" height="1.782" rx=".891" fill="#721B2B"/><mask id="c" fill="#fff"><rect x="19.932" y="17.373" width="6.905" height="19.154" rx=".891"/></mask><rect x="19.932" y="17.373" width="6.905" height="19.154" rx=".891" stroke="#721B2B" stroke-width="3.564" mask="url(#c)"/><mask id="d" fill="#fff"><rect x="11.691" y="20.714" width="6.905" height="15.814" rx=".891"/></mask><rect x="11.691" y="20.714" width="6.905" height="15.814" rx=".891" stroke="#1D293F" stroke-width="3.564" mask="url(#d)"/><mask id="e" fill="#fff"><rect x="3.227" y="24.055" width="6.905" height="12.473" rx=".891"/></mask><rect x="3.227" y="24.055" width="6.905" height="12.473" rx=".891" stroke="#721B2B" stroke-width="3.564" mask="url(#e)"/></svg>