<svg width="50" height="50" fill="none" xmlns="http://www.w3.org/2000/svg"><path d="M1.713 23.345h5.409l1.942 3.884a.798.798 0 0 0 1.427 0l1.942-3.884h.396a.798.798 0 1 0 0-1.596h-.89a.797.797 0 0 0-.713.441l-1.449 2.898L8.33 22.19a.798.798 0 0 0-.714-.44H1.713a.118.118 0 0 1-.117-.118V1.713c0-.064.053-.117.117-.117h16.128c.065 0 .118.053.118.117v8.65a.798.798 0 0 0 1.596 0v-8.65C19.555.77 18.786 0 17.84 0H1.713C.77 0 0 .769 0 1.713v19.919c0 .944.769 1.713 1.713 1.713z" fill="#1D293F"/><path d="M9.777 3.192c-2.2 0-3.99 1.79-3.99 3.99a3.995 3.995 0 0 0 3.99 3.992c2.201 0 3.992-1.79 3.992-3.991s-1.79-3.991-3.992-3.991zm0 6.386a2.398 2.398 0 0 1-2.395-2.395 2.398 2.398 0 0 1 2.395-2.396 2.398 2.398 0 0 1 2.396 2.396 2.398 2.398 0 0 1-2.396 2.395z" fill="#721B2B"/><path d="M9.777 14.366c.939 0 1.853.261 2.644.756a.798.798 0 1 0 .846-1.353 6.571 6.571 0 0 0-3.49-1 6.593 6.593 0 0 0-6.586 6.587c0 .44.358.797.798.797h8.84a.798.798 0 1 0 0-1.595H4.85a4.998 4.998 0 0 1 4.926-4.192zM48.287 0H32.159c-.945 0-1.714.769-1.714 1.713v8.65a.798.798 0 1 0 1.596 0v-8.65c0-.064.053-.117.118-.117h16.128c.065 0 .117.053.117.117v19.919a.117.117 0 0 1-.117.117h-5.902a.798.798 0 0 0-.714.441l-1.449 2.898-1.448-2.898a.798.798 0 0 0-.714-.44h-.889a.798.798 0 1 0 0 1.595h.396l1.942 3.884a.798.798 0 0 0 1.427 0l1.942-3.884h5.409c.944 0 1.713-.769 1.713-1.713V1.713C50 .77 49.231 0 48.287 0z" fill="#1D293F"/><path d="M40.223 3.192a3.996 3.996 0 0 0-3.992 3.99 3.995 3.995 0 0 0 3.992 3.992c2.2 0 3.99-1.79 3.99-3.991s-1.79-3.991-3.99-3.991zm0 6.386a2.398 2.398 0 0 1-2.396-2.395 2.398 2.398 0 0 1 2.396-2.396 2.398 2.398 0 0 1 2.395 2.396 2.398 2.398 0 0 1-2.395 2.395z" fill="#721B2B"/><path d="M36.373 19.355c0 .441.357.798.798.798h8.84c.44 0 .797-.357.797-.797a6.593 6.593 0 0 0-6.585-6.586 6.57 6.57 0 0 0-3.49 1 .798.798 0 1 0 .847 1.352 4.977 4.977 0 0 1 2.643-.756 4.998 4.998 0 0 1 4.926 4.192h-7.978a.798.798 0 0 0-.798.797zm-21.15-4.885v19.918c0 .945.768 1.713 1.713 1.713h5.409l1.941 3.884a.798.798 0 0 0 1.428 0l1.941-3.884h5.409c.945 0 1.713-.769 1.713-1.713V14.469c0-.944-.768-1.713-1.713-1.713H16.936c-.945 0-1.713.769-1.713 1.713zm17.959 0v19.918a.118.118 0 0 1-.118.117h-5.902a.797.797 0 0 0-.713.441L25 37.844l-1.449-2.898a.798.798 0 0 0-.713-.44h-5.902a.118.118 0 0 1-.118-.118V14.469c0-.064.053-.117.118-.117h16.128c.065 0 .118.052.118.117z" fill="#1D293F"/><path d="M25 23.93c2.2 0 3.991-1.79 3.991-3.991s-1.79-3.992-3.991-3.992c-2.2 0-3.991 1.79-3.991 3.992 0 2.2 1.79 3.99 3.991 3.99zm0-6.387a2.398 2.398 0 0 1 2.395 2.396A2.398 2.398 0 0 1 25 22.334a2.398 2.398 0 0 1-2.395-2.395A2.398 2.398 0 0 1 25 17.543z" fill="#721B2B"/><path d="M19.212 32.91h11.576c.44 0 .798-.358.798-.798A6.593 6.593 0 0 0 25 25.526a6.593 6.593 0 0 0-6.586 6.586c0 .44.357.797.798.797zM25 27.12a4.999 4.999 0 0 1 4.927 4.193h-9.853A4.998 4.998 0 0 1 25 27.12z" fill="#1D293F"/><path d="M40.585 46.862a.852.852 0 0 0 0-1.703.852.852 0 0 0 0 1.703zm-4.362 0a.852.852 0 0 0 0-1.703.852.852 0 0 0 0 1.703zm8.724 0a.852.852 0 0 0 0-1.703.852.852 0 0 0 0 1.703z" fill="#721B2B"/><path d="M49.202 42.021H.798A.798.798 0 0 0 0 42.82v6.383c0 .44.357.798.798.798h48.404c.44 0 .798-.357.798-.798V42.82a.798.798 0 0 0-.798-.798zM1.596 43.617h29.521v4.787H1.596v-4.787zm46.808 4.787H32.713v-4.787h15.691v4.787z" fill="#1D293F"/></svg>