<svg width="50" height="50" fill="none" xmlns="http://www.w3.org/2000/svg"><path d="M49.714 13.458a.977.977 0 0 0 0-1.381L37.924.287a.977.977 0 0 0-1.382 0 5.242 5.242 0 0 1-3.73 1.545A5.241 5.241 0 0 1 29.08.286a.977.977 0 0 0-1.382 0L.286 27.7a.977.977 0 0 0 0 1.381 5.283 5.283 0 0 1 0 7.462.977.977 0 0 0 0 1.382l11.79 11.79a.977.977 0 0 0 1.382 0 5.242 5.242 0 0 1 3.73-1.545c1.41 0 2.735.549 3.732 1.545a.977.977 0 0 0 1.38 0l27.414-27.413a.977.977 0 0 0 0-1.381 5.282 5.282 0 0 1 0-7.462zm-2.025 8.106L21.564 47.688a7.175 7.175 0 0 0-4.375-1.472 7.175 7.175 0 0 0-4.376 1.472L2.311 37.186a7.246 7.246 0 0 0 0-8.75L28.436 2.313a7.175 7.175 0 0 0 4.376 1.473 7.175 7.175 0 0 0 4.375-1.473L47.69 12.814a7.246 7.246 0 0 0 0 8.75z" fill="#1D293F"/><path d="M40.943 12.016a2.946 2.946 0 0 0-.856-2.103 2.95 2.95 0 0 0-2.072-.856c-.79 0-1.52.31-2.059.871l-1.95 2.037-.762.806-8.358-2.547a.976.976 0 0 0-.975.244l-1.787 1.786a.977.977 0 0 0 .187 1.527l6.31 3.809-2.25 2.363-2.214-.159a.976.976 0 0 0-.76.284l-1.504 1.503a.977.977 0 0 0 .262 1.568l3.157 1.54 1.54 3.156a.976.976 0 0 0 1.567.262l1.504-1.503c.2-.2.304-.478.283-.76l-.16-2.214 2.365-2.251 3.808 6.31a.976.976 0 0 0 1.527.187l1.786-1.787a.977.977 0 0 0 .244-.973l-2.531-8.364 2.827-2.708c.553-.53.862-1.25.87-2.028zm-2.222.617l-3.26 3.123a.976.976 0 0 0-.26.988l2.536 8.378-.49.49-3.793-6.284a.976.976 0 0 0-1.51-.203l-3.578 3.408a.977.977 0 0 0-.3.777l.16 2.229-.22.22-1.086-2.229a.976.976 0 0 0-.45-.45l-2.228-1.086.22-.22 2.228.16a.977.977 0 0 0 .777-.3l3.408-3.579a.977.977 0 0 0-.203-1.51l-6.284-3.792.49-.49 8.376 2.552c.355.109.74.006.995-.263l1.171-1.241 1.947-2.032a.887.887 0 0 1 .648-.269c.259 0 .51.104.69.284a.981.981 0 0 1 .285.701.888.888 0 0 1-.27.638zm-26.053 13.65a.977.977 0 0 0-1.38 0l-2.835 2.834a.977.977 0 1 0 1.382 1.38l2.833-2.833a.976.976 0 0 0 0-1.38zm1.999-2.003a.977.977 0 0 0-1.381.005l-.017.016a.977.977 0 1 0 1.386 1.377l.016-.016c.38-.383.378-1-.004-1.381z" fill="#721B2B"/><path d="M17.43 27.045a.977.977 0 0 0-1.38 0l-4.834 4.834a.977.977 0 0 0 1.38 1.38l4.835-4.833a.976.976 0 0 0 0-1.381zm2.763 2.762a.977.977 0 0 0-1.381 0l-4.834 4.834a.977.977 0 0 0 1.381 1.381l4.834-4.834a.976.976 0 0 0 0-1.381zm2.762 2.763a.977.977 0 0 0-1.381 0l-4.834 4.833a.977.977 0 1 0 1.38 1.381l4.835-4.834a.976.976 0 0 0 0-1.38z" fill="#1D293F"/><path d="M20.9 40.149a.977.977 0 0 0-1.381 0l-.017.016a.977.977 0 0 0 1.381 1.381l.017-.016a.977.977 0 0 0 0-1.381zm4.817-4.818a.977.977 0 0 0-1.381 0l-2.834 2.834a.977.977 0 0 0 1.382 1.38l2.833-2.833a.977.977 0 0 0 0-1.38z" fill="#721B2B"/></svg>