<svg width="41" height="50" fill="none" xmlns="http://www.w3.org/2000/svg"><path d="M28.285 3.89a.973.973 0 1 0 0 1.945.973.973 0 0 0 0-1.945zm-15.559 0a.973.973 0 1 0 0 1.945.973.973 0 0 0 0-1.945z" fill="#721B2B"/><path d="M40.73 48.143l-6.435-6.723a4.867 4.867 0 0 0 4.686-4.857V7.708a6.83 6.83 0 0 0-1.546-4.32 6.822 6.822 0 0 0-3.937-2.356A54.088 54.088 0 0 0 22.996 0h-5.137C14.513 0 11.028.32 7.5 1.025a6.826 6.826 0 0 0-5.47 6.676v28.862c0 2.644 2.122 4.8 4.752 4.86L.274 48.138a.972.972 0 0 0 .698 1.649h6.953c.312 0 .605-.15.788-.402l2.95-4.071h17.772l2.95 4.07a.973.973 0 0 0 .787.403h6.856a.972.972 0 0 0 .702-1.645zM3.974 36.563V7.7a4.876 4.876 0 0 1 3.908-4.769 51.002 51.002 0 0 1 9.976-.987h5.138c3.39 0 6.797.334 10.124.995 1.1.217 2.1.815 2.812 1.682a4.876 4.876 0 0 1 1.104 3.086v28.855a2.92 2.92 0 0 1-2.917 2.917H6.891a2.92 2.92 0 0 1-2.917-2.917zm3.455 11.28h-4.16l6.217-6.418h2.593l-4.65 6.418zm5.643-4.473l1.409-1.945h12.136l1.409 1.945H13.072zm20.596 4.473l-4.65-6.418h2.59l6.143 6.418h-4.083z" fill="#1D293F"/><path d="M34.12 7.78H6.891a.973.973 0 0 0-.973.972v16.142c0 .537.436.972.973.972h27.227a.973.973 0 0 0 .973-.972V8.752a.973.973 0 0 0-.973-.973zM19.532 23.92H7.864V9.724h11.669v14.197zm13.614 0h-11.67V9.724h11.67v14.197z" fill="#1D293F"/><path d="M24.395 3.89h-7.78a.973.973 0 0 0 0 1.944h7.78a.973.973 0 0 0 0-1.944zm6.807 24.893a3.894 3.894 0 0 0-3.89 3.89 3.894 3.894 0 0 0 3.89 3.89 3.894 3.894 0 0 0 3.89-3.89 3.894 3.894 0 0 0-3.89-3.89zm0 5.835a1.947 1.947 0 0 1-1.945-1.945c0-1.072.872-1.945 1.945-1.945 1.072 0 1.945.873 1.945 1.945a1.947 1.947 0 0 1-1.945 1.945zM9.809 28.783a3.894 3.894 0 0 0-3.89 3.89 3.894 3.894 0 0 0 3.89 3.89 3.894 3.894 0 0 0 3.89-3.89 3.894 3.894 0 0 0-3.89-3.89zm0 5.835a1.947 1.947 0 0 1-1.945-1.945c0-1.072.872-1.945 1.945-1.945 1.072 0 1.945.873 1.945 1.945a1.947 1.947 0 0 1-1.945 1.945z" fill="#721B2B"/><path d="M24.395 29.756h-7.78a.973.973 0 0 0 0 1.945h7.78a.973.973 0 0 0 0-1.945zm0 3.889h-7.78a.973.973 0 0 0 0 1.945h7.78a.973.973 0 0 0 0-1.945z" fill="#1D293F"/></svg>