<svg width="55" height="17" fill="none" xmlns="http://www.w3.org/2000/svg"><path d="M19.892 16.002L22.648.885h4.305l-2.67 15.117h-4.391z" fill="#BDBDBD"/><path d="M19.892 16.002L23.422.885h3.531l-2.67 15.117h-4.391zM39.87 1.053c-.86-.336-2.239-.672-3.96-.672-4.306 0-7.406 2.1-7.406 5.123 0 2.268 2.153 3.443 3.875 4.2 1.723.755 2.24 1.259 2.24 1.93 0 1.008-1.379 1.512-2.584 1.512-1.722 0-2.67-.252-4.133-.84l-.603-.251-.603 3.443c1.033.42 2.928.84 4.908.84 4.564 0 7.578-2.1 7.578-5.291 0-1.764-1.12-3.107-3.703-4.2-1.55-.755-2.497-1.175-2.497-1.93 0-.673.775-1.344 2.497-1.344 1.464 0 2.498.252 3.273.587l.43.168.69-3.275z" fill="#BDBDBD"/><path d="M39.87 1.053c-.86-.336-2.239-.672-3.96-.672-4.306 0-6.63 2.1-6.63 5.123 0 2.268 1.377 3.443 3.1 4.2 1.722.755 2.238 1.259 2.238 1.93 0 1.008-1.378 1.512-2.583 1.512-1.722 0-2.67-.252-4.133-.84l-.603-.251-.603 3.443c1.033.42 2.928.84 4.908.84 4.564 0 7.578-2.1 7.578-5.291 0-1.764-1.12-3.107-3.703-4.2-1.55-.755-2.497-1.175-2.497-1.93 0-.673.775-1.344 2.497-1.344 1.464 0 2.498.252 3.273.587l.43.168.69-3.275zm7.406-.168c-1.034 0-1.809.084-2.24 1.092l-6.458 14.025h4.65l.862-2.52h5.51l.517 2.52h4.134L50.634.885h-3.358zm-1.98 10.078c.258-.756 1.721-4.451 1.721-4.451s.345-.924.603-1.512l.259 1.428s.86 3.779 1.033 4.619h-3.617v-.084z" fill="#BDBDBD"/><path d="M48.31.885c-1.034 0-1.81.084-2.24 1.092l-7.492 14.025h4.65l.862-2.52h5.51l.517 2.52h4.134L50.634.885H48.31zm-3.015 10.078c.345-.84 1.722-4.451 1.722-4.451s.345-.924.603-1.512l.259 1.428s.86 3.779 1.033 4.619h-3.617v-.084zm-33.325.504l-.43-2.184c-.776-2.52-3.273-5.29-6.029-6.634l3.875 13.437h4.65L21.012.969h-4.65L11.97 11.467z" fill="#BDBDBD"/><path d="M11.97 11.467l-.43-2.184c-.776-2.52-3.273-5.29-6.029-6.634l3.875 13.437h4.65L21.012.969h-3.79L11.97 11.467z" fill="#BDBDBD"/><path d="M0 .885l.775.168c5.511 1.26 9.3 4.451 10.764 8.23L9.99 2.145C9.731 1.137 8.956.885 8.01.885H0z" fill="#D4D4D4"/><path d="M0 .885C5.511 2.145 10.075 5.42 11.54 9.2l-1.465-5.962C9.817 2.229 8.955 1.64 8.008 1.64L0 .885z" fill="#D4D4D4"/><path d="M0 .885C5.511 2.145 10.075 5.42 11.54 9.2l-1.034-3.275c-.259-1.008-.603-2.015-1.809-2.435L0 .885z" fill="#D4D4D4"/></svg>