<svg width="18" height="11" fill="none" xmlns="http://www.w3.org/2000/svg"><path fill-rule="evenodd" clip-rule="evenodd" d="M17.292.957c.12-.402 0-.697-.573-.697h-1.896c-.482 0-.704.255-.825.536 0 0-.964 2.35-2.33 3.877-.442.442-.642.582-.883.582-.12 0-.295-.14-.295-.542V.957c0-.482-.14-.697-.542-.697h-2.98c-.3 0-.482.224-.482.436 0 .457.683.562.754 1.848v2.792c0 .612-.11.723-.352.723-.643 0-2.206-2.36-3.133-5.062C3.573.472 3.39.26 2.906.26H1.01C.47.26.36.515.36.796c0 .503.643 2.993 2.993 6.287 1.567 2.25 3.774 3.469 5.782 3.469 1.206 0 1.355-.27 1.355-.737v-1.7c0-.542.114-.65.495-.65.282 0 .764.14 1.888 1.225 1.286 1.285 1.498 1.862 2.22 1.862h1.897c.541 0 .812-.27.656-.805-.171-.533-.785-1.306-1.6-2.222-.441-.522-1.104-1.085-1.305-1.366-.28-.361-.2-.522 0-.843 0 0 2.31-3.254 2.551-4.359z" fill="#fff"/></svg>